<svg width="825" height="121" viewBox="0 0 825 121" fill="none" xmlns="http://www.w3.org/2000/svg">
<path d="M169.1 52.9999C168 53.3999 167.1 53.6999 166.2 53.9999C165.8 54.0999 165.5 54.2999 165.1 54.5999C164.5 54.9999 163.8 55.1999 163.1 55.1999C162.9 55.1999 162.6 55.1999 162.4 55.1999C161 55.4999 159.7 55.0999 158.5 54.4999C158.3 54.3999 158.2 54.2999 158 54.1999C157.7 54.0999 157.3 54.0999 157 54.3999C156.9 54.4999 156.8 54.4999 156.8 54.5999C155.1 56.1999 153 56.9999 150.8 57.3999C148.8 57.7999 146.8 57.5999 144.8 57.2999C144.1 57.1999 143.3 56.7999 142.7 56.4999C141.3 55.8999 140.3 54.9999 139.8 53.5999C139.7 53.2999 139.5 53.0999 139.4 52.8999C139 52.8999 138.9 53.0999 138.8 53.3999C138.5 54.3999 138.2 55.2999 138.1 56.2999C137.9 57.1999 137.6 58.0999 137.1 58.8999C136.4 59.9999 135.6 60.3999 134.4 60.0999C133.2 59.7999 132.2 59.2999 132.1 57.7999C132.1 57.6999 132.1 57.4999 132 57.3999C131.8 56.4999 131.4 56.1999 130.4 56.3999C129.8 56.4999 129.1 56.6999 128.5 56.7999C127.8 56.8999 127.1 57.0999 126.5 57.0999C124.1 57.1999 121.8 56.7999 119.5 55.9999C117.9 55.4999 115.8 52.8999 115.5 51.2999C115.3 50.0999 115.4 48.9999 116.3 47.9999C116.8 47.4999 117.2 46.8999 117.6 46.2999C118.1 45.5999 118.7 45.1999 119.4 44.9999C120.3 44.6999 121.2 44.3999 122.1 44.0999C122.9 43.7999 123.6 43.7999 124.4 44.0999C125.6 44.4999 126.7 44.9999 127.9 45.2999C129.9 45.9999 131.6 46.9999 133.1 48.3999C133.4 48.6999 133.7 49.1999 134.3 49.1999C134.4 48.9999 134.6 48.7999 134.7 48.5999C135.2 47.1999 135.6 45.7999 136 44.4999V44.3999C136.1 41.9999 137.2 39.6999 137.5 37.2999C138.2 35.6999 138.2 33.9999 139 32.4999C139.4 31.6999 139.5 30.8999 139.4 29.9999C139.3 29.3999 139.5 28.7999 139.7 28.0999C140.5 25.8999 141.3 23.6999 141.5 21.3999C141.5 20.9999 141.6 20.5999 141.8 20.2999C143 18.1999 143.4 15.9999 143.8 13.7999C143.9 12.8999 144.1 12.0999 144.4 11.1999C144.9 9.79993 145.2 8.39993 145.6 6.99993C145.8 6.19993 146.1 5.39993 146.6 4.59993C146.8 4.29993 146.9 4.09993 147.1 3.89993C147.7 3.29993 148.4 2.79993 149.2 3.09993C150 3.39993 150.5 3.99993 150.6 4.89993C150.6 5.29993 150.6 5.69993 150.5 6.09993C150.4 6.59993 150.3 7.19993 150.1 7.69993C149.3 9.89993 149 12.0999 148.4 14.2999C148.2 14.9999 148 15.5999 147.8 16.2999C147.5 17.5999 147.2 18.9999 146.9 20.3999C146.8 20.9999 146.6 21.5999 146.5 22.0999C146 23.8999 145.3 25.6999 145.1 27.5999C145.1 27.7999 145 28.0999 144.9 28.2999C144.1 30.8999 143.4 33.3999 142.6 35.9999C142.5 36.4999 142.4 36.9999 142.3 37.4999C142.2 38.4999 142 39.3999 141.6 40.3999C141.3 41.0999 141.1 41.7999 141 42.5999C141 43.0999 140.8 43.5999 140.7 43.9999C140.5 44.9999 140.3 45.8999 140.2 46.8999C140.2 47.0999 140.3 47.2999 140.4 47.5999C140.6 47.5999 140.8 47.5999 140.9 47.4999C141.8 46.8999 142.7 46.3999 143.6 45.7999C145.1 44.6999 146.6 43.8999 148.3 43.3999C148.5 43.2999 148.7 43.1999 148.9 43.0999C150.8 42.0999 152.6 42.2999 154.4 42.9999C155.3 43.3999 156 43.9999 156 45.0999C156 45.6999 156.2 46.0999 156.6 46.4999C157 46.7999 157.4 46.8999 157.8 46.4999C159.1 45.0999 161 44.4999 162.4 43.1999C162.7 42.8999 163.2 42.6999 163.6 42.6999C164.8 42.5999 166 42.2999 167.2 41.9999C168.5 41.6999 169.7 42.0999 170.9 42.5999C171.1 42.6999 171.3 42.7999 171.5 42.8999C172.3 43.3999 174.3 45.7999 174.7 46.6999C174.9 47.1999 175 47.7999 174.9 48.3999C174.5 50.3999 174.3 52.3999 174.3 54.3999C174.3 54.9999 174.2 55.6999 174 56.2999C173.7 57.1999 173.6 57.9999 173.5 58.8999C173.4 60.7999 173.1 62.5999 172.5 64.3999C172.3 64.8999 172.2 65.4999 172.1 65.9999C171.5 68.6999 170.9 71.2999 170.3 73.9999C170.2 74.2999 170.1 74.6999 170 74.9999C169.6 75.7999 169.3 76.5999 169.2 77.4999C169.2 77.8999 169 78.2999 168.8 78.5999C168.2 79.5999 167.6 80.5999 167 81.5999C166.7 82.1999 166.4 82.7999 166.1 83.2999C165.9 83.5999 165.8 83.9999 165.6 84.1999C164.4 85.3999 163.3 86.6999 161.7 87.3999C161 87.6999 160.2 87.9999 159.4 88.2999C158.5 88.5999 157.7 88.5999 156.8 88.2999C156.1 87.9999 155.4 87.7999 154.7 87.3999C154.3 87.1999 153.9 86.8999 153.6 86.5999C153.1 85.9999 152.6 85.3999 152.2 84.6999C151.9 84.2999 151.6 83.7999 151.5 83.2999C151.2 82.2999 150.9 81.1999 150.6 80.1999C150.3 79.2999 150.4 78.2999 150.5 77.2999C150.6 75.9999 150.9 74.7999 151 73.4999C151.1 72.6999 151.4 71.9999 152 71.3999C152.6 70.7999 153.1 70.1999 153.7 69.5999C153.9 69.3999 154.2 69.0999 154.5 68.9999C155.2 68.5999 155.8 68.8999 156 69.5999C156.2 70.2999 156.1 70.9999 155.8 71.7999C155.7 72.1999 155.5 72.5999 155.4 73.0999C155.1 74.3999 155 75.6999 155.3 76.9999C155.6 78.1999 155.8 79.3999 155.8 80.5999C155.9 81.9999 156.7 82.8999 157.5 83.7999C157.9 84.1999 158.5 84.1999 159 83.8999C159.7 83.4999 160.3 82.9999 160.7 82.1999C161.1 81.3999 161.7 80.6999 162.4 79.9999C163.3 79.1999 163.8 78.1999 163.9 77.0999C164.2 74.7999 165.1 72.6999 165.8 70.4999C165.9 70.2999 166 69.9999 166 69.7999C166.4 67.8999 166.8 65.8999 167.1 63.9999C167.2 63.6999 167.2 63.2999 167.3 62.9999C167.8 61.8999 167.9 60.6999 168.1 59.4999C168.3 57.5999 168.5 55.7999 168.7 53.8999C169.2 53.3999 169.2 53.1999 169.1 52.9999ZM147.5 52.7999C148.9 52.6999 150.3 52.5999 151.6 51.7999C152.6 51.1999 153 50.3999 152.9 49.2999C152.8 48.2999 151.7 47.6999 150.8 48.0999C150.1 48.3999 149.3 48.6999 148.6 49.0999C148.3 49.1999 148 49.4999 147.7 49.6999C147.2 50.0999 146.7 50.3999 146.3 50.7999C146 50.9999 145.8 51.2999 145.6 51.5999C145.3 52.0999 145.5 52.5999 146.1 52.6999C146.6 52.7999 147.1 52.6999 147.5 52.7999ZM124.7 52.5999C125.9 52.3999 127.3 52.2999 128.7 51.9999C129.1 51.8999 129.3 51.4999 129.1 51.1999C128.8 50.7999 128.5 50.4999 128.1 50.1999C127 49.4999 125.8 49.0999 124.5 48.8999C123.4 48.6999 122.4 49.0999 121.6 50.0999C121.1 50.6999 121.1 51.1999 121.7 51.5999C122.1 51.8999 122.6 52.0999 123.1 52.2999C123.5 52.4999 124 52.4999 124.7 52.5999ZM166.8 47.2999C166.2 47.3999 165.8 47.4999 165.3 47.5999C164.2 47.8999 163.5 48.6999 163 49.5999C162.9 49.6999 162.9 49.8999 163 49.9999C163.1 50.0999 163.3 50.1999 163.5 50.1999C163.6 50.1999 163.8 50.0999 163.9 49.9999C164.5 49.5999 165.2 49.1999 165.8 48.6999C166.3 48.4999 166.7 48.0999 166.8 47.2999Z" fill="#1C1C1C"/>
<path d="M324.7 47.2001C324.8 46.5001 324.8 46.1001 324.9 45.7001C325.3 44.4001 325.5 43.0001 325.6 41.6001C325.7 40.8001 325.9 40.0001 326.3 39.2001C326.5 38.9001 326.5 38.4001 326.5 38.1001C326.5 37.2001 326.3 36.9001 325.4 36.7001C324.7 36.5001 324.2 36.3001 323.8 35.7001C323.3 34.9001 323.4 34.1001 324.2 33.4001C324.6 33.0001 325.1 32.8001 325.6 32.5001C325.9 32.3001 326.3 32.3001 326.6 32.2001C327.5 31.9001 328.1 31.4001 328.3 30.4001C328.5 29.4001 328.8 28.5001 329.1 27.5001C329.2 27.3001 329.2 27.1001 329.3 26.9001C330.5 24.4001 330.9 21.7001 331.8 19.1001C332.2 18.1001 332.4 17.1001 332.7 16.1001C332.9 15.3001 333.2 14.5001 333.8 13.8001C334.2 13.3001 334.3 12.7001 334.5 12.1001C334.7 11.3001 335 10.6001 335.3 9.9001C335.5 9.5001 335.8 9.2001 336.2 8.9001C336.5 8.7001 336.8 8.6001 337.2 8.6001C338.5 8.6001 339.7 9.8001 339.5 11.1001C339.4 12.2001 339.1 13.2001 338.7 14.3001C338.1 15.7001 337.7 17.1001 337.3 18.5001C336.9 20.2001 336.1 21.8001 335.6 23.5001C335.2 24.8001 334.8 26.2001 334.5 27.5001C334.1 29.2001 334.7 29.7001 336.5 29.3001C336.8 29.2001 337.2 29.1001 337.5 29.1001C338.4 29.0001 339.1 29.3001 339.7 29.9001C340.2 30.5001 340.2 31.3001 339.5 31.9001C339.2 32.1001 338.9 32.4001 338.6 32.5001C338.1 32.8001 337.5 33.0001 336.9 33.2001C335.8 33.6001 334.6 34.0001 333.5 34.4001C333 34.6001 332.7 35.0001 332.5 35.5001C332.1 36.8001 331.6 38.1001 331.3 39.5001C330.9 41.7001 330.5 44.0001 329.7 46.1001C329.4 47.0001 329.3 47.8001 329.6 48.7001C329.8 49.3001 330.1 49.5001 330.6 49.4001C331.6 49.2001 332.5 48.9001 333.5 48.6001C334.1 48.4001 334.2 48.0001 334.1 47.4001C334 46.9001 333.9 46.5001 333.9 46.0001C333.9 44.5001 334.3 43.0001 335.1 41.6001C335.2 41.5001 335.2 41.4001 335.3 41.3001C336.2 39.3001 337.8 37.7001 339.5 36.4001C339.9 36.1001 340.2 35.8001 340.5 35.5001C342.2 33.8001 344.3 33.5001 346.4 33.7001C346.8 33.7001 347.3 33.9001 347.7 33.9001C348.5 34.0001 349.1 34.4001 349.6 35.0001C350.7 36.2001 350.8 37.7001 349.8 39.1001C349.3 39.8001 348.9 40.6001 348.4 41.2001C347.9 41.8001 347.3 42.4001 346.7 42.9001C346.4 43.2001 345.9 43.4001 345.6 43.8001C344.4 45.3001 342.8 46.3001 341.3 47.4001L341.2 47.5001C340.8 47.9001 340.7 48.3001 341.2 48.6001C342.3 49.3001 343.4 50.0001 344.8 50.2001C345.7 50.3001 346.5 50.5001 347.3 50.7001C347.7 50.8001 348.1 51.0001 348.4 51.3001C348.8 51.6001 348.9 52.2001 348.5 52.7001C348.1 53.3001 347.6 53.6001 346.9 53.8001C345.8 54.1001 344.6 54.2001 343.5 54.0001C341.9 53.7001 340.3 53.2001 339 52.3001C338.6 52.0001 338.1 51.8001 337.7 51.5001C337.1 51.2001 336.5 51.2001 335.9 51.6001C335 52.2001 334 52.6001 333.1 53.1001C332.9 53.2001 332.6 53.3001 332.4 53.4001C331 53.6001 329.6 53.7001 328.2 53.4001C327.1 53.2001 326.2 52.5001 325.6 51.6001C324.9 50.6001 324.5 49.5001 324.6 48.2001C324.7 47.9001 324.6 47.5001 324.7 47.2001ZM339 43.8001C339.6 43.6001 339.9 43.6001 340.2 43.5001C341 43.1001 341.7 42.4001 342.3 41.7001C343.2 40.7001 344 39.7001 344.9 38.7001C345 38.6001 345.1 38.5001 345.2 38.3001C345.3 38.1001 345.1 37.8001 344.9 37.8001C344.2 37.9001 343.6 38.2001 343.1 38.8001C342.6 39.5001 342 40.0001 341.4 40.6001C340.3 41.4001 339.7 42.4001 339 43.8001Z" fill="#1C1C1C"/>
<path d="M306.6 42.4002C306.2 42.0002 305.7 41.5002 305.3 41.1002C304.5 40.2002 303.5 39.7002 302.2 39.7002C301.1 39.7002 300.1 39.7002 299 39.7002C296.7 39.7002 294.8 40.9002 293 42.1002C291.8 42.9002 290.5 43.7002 289.7 44.9002C289.6 45.1002 289.4 45.2002 289.2 45.3002C288.5 45.8002 287.9 46.5002 287.6 47.3002C287.5 47.6002 287.4 47.9002 287.2 48.1002C286.2 49.3002 286.1 50.8002 285.9 52.2002C285.8 52.7002 285.9 53.2002 286.2 53.6002C287 54.7002 288.1 55.5002 289.6 55.3002C291 55.2002 292.5 55.0002 293.7 54.0002C293.9 53.8002 294.1 53.7002 294.4 53.6002C295.7 53.0002 296.8 52.2002 297.9 51.4002C298.8 50.8002 299.6 50.1002 300.5 49.5002C300.8 49.3002 301.1 49.2002 301.7 48.9002C301.6 50.4002 301.6 51.6002 300.7 52.6002C300.2 53.2002 300.1 53.8002 300 54.5002C300 55.0002 299.9 55.6002 299.7 56.1002C299.3 57.1002 298.9 58.0002 298.4 59.0002C298.1 59.7002 297.7 60.5002 297.4 61.2002C297.4 61.3002 297.3 61.3002 297.3 61.4002C297.1 62.4002 296.4 63.3002 295.8 64.1002C295.7 64.3002 295.5 64.5002 295.4 64.8002C294.9 66.2002 294.3 67.6002 293.3 68.8002C292.9 69.3002 292.7 70.0002 292.4 70.5002C292.2 70.9002 292 71.3002 291.8 71.7002C291.4 72.4002 290.9 73.1002 290.4 73.7002C289.9 74.3002 289.3 74.9002 288.7 75.4002C288 75.9002 287.5 75.7002 287.3 74.9002C287.1 74.0002 287.2 73.2002 287.4 72.3002C287.5 71.8002 287.6 71.2002 287.6 70.7002C287.5 69.3002 287.6 68.0002 287.7 66.6002C287.7 66.3002 287.7 65.9002 287.7 65.6002C287.6 65.0002 287.1 64.8002 286.7 65.3002C286.4 65.6002 286.1 66.0002 285.8 66.3002C284.7 67.7002 284.1 69.4002 283.2 70.9002C283 71.3002 283 71.9002 282.9 72.3002C282.9 73.0002 282.9 73.7002 282.9 74.3002C282.8 77.3002 284.1 79.5002 286.9 80.6002C288.3 81.1002 289.8 80.9002 291 79.7002C291.5 79.2002 292 78.6002 292.5 78.0002C292.8 77.7002 293.1 77.3002 293.4 77.0002C294.2 76.3002 294.8 75.5002 295.3 74.7002C295.5 74.4002 295.8 74.0002 296 73.7002C296.3 73.4002 296.5 73.1002 296.7 72.8002C296.9 72.8002 297.1 72.6002 297.1 72.3002C297.1 72.1002 297.2 71.9002 297.2 71.7002C297.2 71.6002 297.3 71.5002 297.3 71.4002C297.4 71.3002 297.4 71.1002 297.5 71.0002C297.7 70.7002 298 70.3002 298.2 70.0002C298.2 69.9002 298.3 69.8002 298.3 69.7002C298.5 69.2002 298.9 68.7002 299.1 68.1002C299.4 67.5002 299.7 66.8002 300 66.2002C300.1 66.0002 300.3 65.7002 300.4 65.5002C300.5 65.2002 300.6 64.9002 300.7 64.6002V64.5002C300.9 63.8002 301.2 63.2002 301.6 62.6002C301.8 62.3002 301.9 61.9002 302 61.5002C302.1 60.4002 302.6 59.4002 303.3 58.5002C303.8 57.9002 304.1 57.2002 304.1 56.4002C304.1 55.7002 304.4 55.1002 304.7 54.4002C304.9 53.9002 305.1 53.4002 305.3 52.9002C305.8 51.7002 306.3 50.4002 306.9 49.2002C307 48.9002 307.2 48.5002 307.2 48.2002C307.3 47.0002 307.5 45.9002 307.6 44.7002C307.6 43.8002 307.3 43.0002 306.6 42.4002ZM298.4 45.5002C298.4 45.6002 298.4 45.7002 298.3 45.7002C297.9 46.4002 297.1 46.8002 296.4 47.1002C296.3 47.2002 296.2 47.2002 296 47.3002C295.9 47.3002 295.9 47.4002 295.8 47.4002C295.7 47.5002 295.6 47.5002 295.5 47.6002C295.2 47.8002 294.8 48.1002 294.5 48.3002C294.4 48.4002 294.3 48.4002 294.1 48.5002C294 48.6002 293.9 48.6002 293.8 48.7002C293.7 48.8002 293.7 48.8002 293.6 48.9002C293.6 48.9002 293.6 48.9002 293.5 48.9002C293.1 49.2002 292.7 49.4002 292.1 49.4002C291.7 49.4002 291.5 49.0002 291.7 48.6002C291.8 48.4002 292 48.2002 292.2 48.0002C292.3 47.7002 292.6 47.3002 292.9 47.1002C293.5 46.6002 294.2 46.2002 294.9 45.7002C295 45.6002 295 45.5002 295.1 45.5002C295.9 44.7002 297 44.7002 298 44.7002C298.4 44.8002 298.5 45.2002 298.4 45.5002Z" fill="#1C1C1C"/>
<path d="M257.7 52.5C257.6 52.2 257.5 52 257.3 51.7C256.7 51.2 256 50.8 255.2 50.6C254.5 50.4 253.9 50.1 253.2 49.9C251.1 49.3 249.2 48.3 247.2 47.4C246.8 47.2 246.7 46.7 247 46.3C247.1 46.1 247.3 46 247.4 45.9C248.7 45 250 44.1 251.3 43.3C253.2 42.1 255.3 41.2 257 39.5C257.5 38.9 258.3 38.6 259 38.1C259.3 37.9 259.5 37.8 259.8 37.6C260.4 37.2 260.9 36.8 260.8 36C260.7 35.3 260.2 35 259.6 34.8H259.5C259 34.7 258.6 34.6 258.1 34.6C254.6 35.7 251.8 38.5 248.7 40.4C248.3 40.6 247.8 40.2 248 39.8C248.9 38 249.6 36 250.4 34.2C251.1 32.7 251.8 30.9 253.1 29.7C253.2 29.5 253.4 29.4 253.5 29.2C253.9 28.4 254.4 27.7 254.9 27C255.1 26.6 255.2 26.2 255.4 25.8C256.1 24 255.4 22.4 253.7 21.9C252.8 21.6 251.9 21.8 251.3 22.6C250.9 23.1 250.6 23.7 250.3 24.3C250 24.9 249.8 25.5 249.4 26C248.7 27 248.2 28.1 247.7 29.2C247.3 30.1 246.9 30.9 246.6 31.8C245.6 34.1 244.3 36.3 243.6 38.7C243.5 38.9 243.4 39.1 243.3 39.2C242.8 40 242.4 40.8 242.1 41.6C242 42 241.7 42.3 241.4 42.6C240.9 43.2 240.4 43.7 239.9 44.3C239 45.6 238.7 46.9 239.2 48.3C239.4 48.8 239.4 49.3 239.3 49.9C239.2 50.6 239.1 51.3 239 51.9C238.6 53.5 239.1 54.9 239.4 56.3C239.6 57.5 240.9 57.8 241.9 56.9C242.4 56.5 242.8 56 243.2 55.4C243.7 54.6 244 53.8 244.4 53C244.7 52.3 245.1 52.1 245.7 52.3C246.6 52.6 247.4 52.9 248.2 53.2C250 54 251.9 54.6 253.9 55.1C254.6 55.3 255.4 55.3 256.2 55.3C256.5 55.3 256.7 55.3 257 55.2C257.5 54.7 258 54.1 258.1 53.4C258.1 53.3 258.1 53.3 258.1 53.2C257.8 53.2 257.7 52.8 257.7 52.5Z" fill="#1C1C1C"/>
<path d="M265.7 41.8999C265.1 41.5999 264.4 41.5999 263.8 41.6999C262.6 42.1999 262 43.3999 261.5 44.5999C261.4 44.8999 261.2 45.2999 261 45.5999C260.2 47.7999 259.4 49.8999 259.4 52.0999C259.5 52.1999 259.6 52.3999 259.6 52.4999C259.6 52.5999 259.6 52.6999 259.5 52.7999C259.5 52.8999 259.5 52.8999 259.5 52.9999C259.5 53.0999 259.5 53.1999 259.5 53.2999V53.3999V53.4999C259.5 53.5999 259.6 53.6999 259.6 53.6999C259.6 53.6999 259.6 53.7999 259.7 53.7999C259.8 53.8999 259.8 53.8999 259.9 53.9999L260 54.0999L260.1 54.1999C260.3 54.2999 260.6 54.2999 260.8 54.2999C262.3 54.2999 263.6 53.2999 264.2 51.8999C264.4 51.2999 264.7 50.7999 265 50.2999C265.8 49.0999 266.3 47.8999 266.5 46.5999C266.6 45.8999 266.7 45.1999 266.8 44.5999C267.3 43.2999 266.8 42.3999 265.7 41.8999Z" fill="#1C1C1C"/>
<path d="M519.2 21.2001C519 23.5001 518.4 25.6001 517.1 27.7001C516.1 29.3001 515.3 31.1001 514.1 32.6001C513.8 33.0001 513.7 33.5001 513.9 34.0001C514.3 35.1001 514.7 36.1001 515.1 37.2001C515.3 37.6001 515.6 37.7001 516.1 37.6001C517 37.2001 518 36.9001 518.8 36.2001C519.4 35.6001 520.1 35.3001 520.9 35.0001C522.1 34.5001 523.3 34.0001 524.4 33.2001C525.5 32.4001 526.8 32.1001 528.1 32.5001C529.7 32.9001 530.1 34.4001 528.9 35.8001C528.4 36.3001 527.9 36.7001 527.3 36.9001C525.8 37.4001 524.4 38.4001 523.2 39.4001C522.8 39.8001 522.3 40.0001 521.8 40.3001C521 40.7001 520.2 41.1001 519.4 41.6001C518.5 42.1001 518.4 42.6001 519 43.2001C519.6 43.9001 520.4 44.6001 521.1 45.3001C521.4 45.6001 521.7 45.8001 522 46.2001C522.3 46.6001 522.5 47.1001 522.5 47.6001C522.4 48.5001 521.8 49.1001 520.9 49.1001C520.3 49.0001 519.7 48.9001 519.1 48.6001C517.8 48.0001 516.6 47.2001 515.7 46.1001C514.6 44.8001 513.9 45.0001 512.7 45.7001C511 46.6001 509.2 47.3001 507.3 47.7001C505.9 48.0001 504.6 47.9001 503.3 47.5001C501.4 46.9001 500.5 45.6001 500.7 43.6001C500.8 42.9001 500.9 42.2001 501.1 41.6001C501.2 41.3001 501.2 41.0001 501.4 40.8001C502.5 39.3001 503.3 37.6001 504.7 36.2001C506.1 34.9001 507.2 33.3001 508.4 31.7001C508.8 31.2001 508.9 30.6001 508.7 30.0001C508.6 29.7001 508.6 29.3001 508.5 29.0001C507.8 27.0001 508.2 24.9001 508 22.8001C508 22.5001 508 22.1001 508.1 21.8001C508.4 20.6001 508.8 19.4001 509.1 18.2001C509.5 17.0001 510.2 16.0001 511.2 15.1001C511.8 14.6001 512.5 14.3001 513.3 14.3001C515 14.2001 516.5 14.7001 517.8 15.8001C518.6 16.5001 519.6 19.2001 519.6 20.3001C519.2 20.6001 519.2 20.9001 519.2 21.2001ZM505.8 42.6001C505.9 42.7001 506 42.8001 506.1 42.8001C507.8 42.6001 509.3 41.6001 510.7 40.7001C511.1 40.4001 511.2 39.9001 511 39.5001C510.7 38.9001 510.5 38.4001 510.2 37.9001C510.1 37.6001 509.7 37.6001 509.4 37.8001C507.8 39.0001 506.5 40.5001 505.7 42.3001C505.7 42.4001 505.8 42.5001 505.8 42.6001ZM514.3 20.3001C514.3 20.2001 514.4 19.9001 514.4 19.6001C514.4 19.0001 514.2 18.7001 513.8 18.6001C513.3 18.5001 513 18.8001 512.7 19.2001C512.6 19.4001 512.5 19.5001 512.4 19.7001C512.2 20.3001 511.9 20.9001 511.8 21.5001C511.6 22.6001 511.7 23.7001 512 24.8001C512 25.0001 512.3 25.2001 512.5 25.3001C512.8 25.4001 513 25.1001 513.2 24.8001C513.6 24.1001 513.9 23.4001 514.1 22.6001C514 21.9001 514.1 21.2001 514.3 20.3001Z" fill="#1C1C1C"/>
<path d="M471.4 74.5999C470.6 74.6999 469.8 74.3999 469.3 73.7999C468.8 73.1999 468.2 72.5999 467.7 71.9999C467.2 71.3999 466.9 70.5999 466.9 69.7999C466.9 69.3999 466.8 68.8999 466.7 68.4999C466.4 67.5999 466.4 66.5999 466.5 65.5999C466.6 65.0999 466.6 64.4999 466.5 63.9999C466.3 62.7999 466.7 61.7999 467.2 60.6999C467.3 60.3999 467.5 60.1999 467.8 59.9999C468.4 59.4999 469.2 59.4999 469.5 60.1999C469.9 60.8999 470.2 61.5999 470.3 62.4999C470.6 64.3999 471 66.3999 471.4 68.2999C471.5 68.6999 471.6 68.9999 471.8 69.2999C472 69.5999 472.5 69.5999 472.6 69.1999C473 68.2999 473.5 67.4999 474.2 66.7999L474.3 66.6999C474.5 65.4999 475.2 64.4999 475.9 63.4999C476 63.3999 476 63.2999 476 63.1999C476.3 61.7999 477 60.5999 477.8 59.3999C478.1 58.8999 478.3 58.3999 478.5 57.8999C478.7 57.2999 478.9 56.7999 479.1 56.1999C479.8 54.6999 480.2 53.1999 480.7 51.6999C481.1 50.5999 481.6 49.4999 482 48.3999C482.3 47.5999 482.6 46.7999 482.8 45.9999C482.9 45.7999 482.9 45.5999 482.9 45.3999C482.9 45.1999 482.6 44.8999 482.4 44.9999C482.2 45.0999 481.9 45.0999 481.7 45.2999C481.3 45.5999 480.8 45.7999 480.4 46.0999C479.3 46.8999 478.2 47.0999 477 46.7999C475.6 46.4999 474.8 45.4999 474.9 43.9999C474.9 43.3999 475.1 42.6999 475.4 42.0999C476 40.9999 476.7 39.8999 477.3 38.7999C478.3 37.0999 479.8 36.1999 481.5 35.4999C482.3 35.1999 483.1 34.8999 483.9 34.5999C484.2 34.4999 484.5 34.3999 484.8 34.3999C486.1 34.3999 487.4 34.7999 488.5 35.4999C489.4 36.0999 489.6 36.8999 489.1 37.9999C488.7 38.7999 488.6 39.4999 488.6 40.2999C488.6 41.4999 488.3 42.6999 488 43.8999C487.4 45.7999 486.9 47.5999 486.3 49.4999C486 50.4999 485.8 51.4999 485.5 52.4999C485.4 52.8999 485.2 53.3999 485 53.6999C484.4 54.7999 483.8 55.8999 483.7 57.1999C483.7 57.4999 483.4 57.7999 483.3 58.1999C482.9 59.0999 482.5 59.8999 482.1 60.7999C481.2 62.9999 480.4 65.1999 479 67.1999C478.1 68.3999 477.4 69.7999 476.7 71.0999C476.1 72.1999 475.1 72.9999 474 73.7999C473.2 74.4999 472.3 74.5999 471.4 74.5999Z" fill="#1C1C1C"/>
<path d="M442.3 39.5C441.3 39.3 440.6 39.5 439.9 39.7C438.8 40.1 437.6 40.4 436.5 40.8C436 41 435.4 41.1 435.3 41.6C435.1 42.3 435.7 42.5 436.1 42.8C437.1 43.5 438.1 44.2 439.4 44.3C439.7 44.3 440 44.5 440.3 44.6C441.3 45.1 442.4 45.5 443.5 45.8C444.4 46 445 46.5 445.5 47.2C446 47.9 445.8 48.7 445 49.2C444.6 49.4 444.2 49.6 443.7 49.6C443.2 49.7 442.6 49.6 442.1 49.5C439.2 49 436.4 48.1 434 46.5C433.6 46.2 433.1 46 432.6 45.8C432.2 45.6 431.8 45.7 431.5 46.1C431.1 46.7 430.7 47.3 430.4 47.9C429.6 49.2 428.8 50.5 428 51.8C427.7 52.2 427.4 52.6 427 53C426.6 53.4 426 53.3 425.8 52.8C425.8 52.7 425.7 52.6 425.7 52.5C425.5 50.9 425.4 49.3 425.8 47.7C426.1 46.7 426.6 45.7 427 44.8C427.2 44.3 427.5 43.9 427.6 43.4C427.8 42.2 428.3 41 428.8 39.9C428.9 39.7 429 39.5 429 39.3C429.4 37.5 430.3 35.9 431.1 34.3C431.2 34 431.4 33.8 431.4 33.5C431.6 32.4 432.2 31.5 432.8 30.5C433.6 29 434.3 27.4 435 25.9C435.1 25.7 435.1 25.4 435.3 25.2C436.6 23.5 437.2 21.5 438.4 19.8C438.5 19.6 438.6 19.5 438.8 19.3C439.6 18.3 440.8 17.9 441.7 18.2C442.7 18.5 443.5 19.8 443.3 21C443.2 21.6 443 22.1 442.8 22.7C442.5 23.4 442.2 24.1 441.9 24.8C441.8 25 441.8 25.2 441.7 25.4C440.9 26.5 440.4 27.8 439.9 29C439.7 29.6 439.4 30.1 439.2 30.7C438.9 31.3 438.6 31.9 438.2 32.6C437.9 33.3 437.5 34 437.2 34.8C437 35.3 437.4 35.7 437.9 35.6C438.1 35.6 438.3 35.5 438.5 35.4C440.4 34.7 442.5 34.3 444.4 33.9C445.8 33.6 446.9 34 447.9 34.8C448.4 35.2 448.8 35.8 448.9 36.5C449 37.6 448.4 38.5 447.4 38.8C446.9 38.9 446.4 39 445.9 39C445.2 39 444.4 39.1 443.7 39.4C443.2 39.4 442.6 39.4 442.3 39.5Z" fill="#1C1C1C"/>
<path d="M26.8 53.4002C24.8 53.3002 23.2 52.7002 21.6 52.1002C21.1 51.9002 20.6 51.7002 20.1 51.6002C19.5 51.5002 19.1 51.7002 18.8 52.2002C18.4 53.0002 18.2 53.8002 18.1 54.7002C17.9 56.6002 17.6 58.5002 16.8 60.2002C16.5 60.9002 16.1 61.5002 15.4 61.9002C14.9 62.2002 14.4 62.2002 13.9 61.7002C13.2 61.0002 13 60.2002 13.1 59.3002C13.4 57.9002 13.7 56.4002 13.9 55.0002C14 54.6002 14.1 54.1002 14.1 53.7002C14.1 53.0002 13.7 52.7002 13.1 53.0002C12.4 53.3002 11.7 53.6002 11 54.0002C10.6 54.2002 10.2 54.4002 9.89997 54.6002C8.39997 55.7002 6.69997 56.5002 4.99997 57.3002C4.49997 57.5002 4.09997 57.6002 3.59997 57.5002C2.59997 57.2002 2.19997 56.1002 2.79997 55.3002C3.09997 54.8002 3.59997 54.4002 3.99997 54.1002C4.99997 53.4002 5.99997 52.7002 6.99997 52.1002C8.59997 51.2002 10.2 50.3002 11.7 49.5002C11.9 49.4002 12 49.3002 12.2 49.2002C12.4 49.0002 12.4 48.6002 12.2 48.4002C11.9 48.2002 11.7 47.9002 11.4 47.8002C9.69997 47.1002 8.29997 45.9002 6.79997 45.0002C5.79997 44.4002 4.89997 43.7002 3.89997 43.0002C3.29997 42.6002 3.09997 41.9002 3.19997 41.2002C3.39997 40.4002 3.89997 39.9002 4.69997 39.9002C5.79997 39.9002 6.89997 40.0002 7.79997 40.7002C9.89997 42.3002 12.3 43.3002 14.4 44.7002C15.4 45.3002 15.9 45.1002 16 44.0002C16.1 40.7002 17.1 37.7002 18 34.6002C18.3 33.7002 18.6 32.9002 19.4 32.3002C20.5 31.5002 21.7 31.8002 22.2 33.1002C22.4 33.6002 22.4 34.1002 22.3 34.7002C21.7 37.5002 21.1 40.3002 20.6 43.2002C20.5 43.6002 20.2 44.2002 20.7 44.5002C21.1 44.8002 21.5 44.3002 21.9 44.2002C22.9 43.7002 23.8 43.2002 24.7 42.7002C25.1 42.5002 25.5 42.3002 25.9 42.2002C26.8 42.0002 27.6 41.8002 28.5 41.7002C28.8 41.6002 29.2 41.6002 29.5 41.7002C29.9 41.7002 30.1 42.2002 30 42.6002C29.9 42.8002 29.8 43.0002 29.7 43.1002C29.1 43.8002 28.4 44.6002 27.8 45.3002C27.4 45.8002 26.8 46.0002 26.2 46.3002C25.4 46.6002 24.6 47.0002 23.8 47.4002C23.5 47.5002 23.3 47.7002 23.1 47.9002C22.9 48.1002 22.9 48.5002 23.1 48.7002C23.5 49.0002 23.9 49.2002 24.3 49.5002C25.2 50.0002 26.1 50.4002 26.9 50.8002C27.4 51.1002 27.8 51.4002 28.1 51.8002C28.7 52.5002 28.4 53.4002 27.5 53.6002C27.2 53.4002 26.9 53.4002 26.8 53.4002Z" fill="#1C1C1C"/>
<path d="M407.1 38.6001C407 39.0001 407 39.5001 406.9 39.9001C406.3 42.3001 405.8 44.6001 405.2 47.0001C405.1 47.4001 404.9 47.8001 404.8 48.1001C404.4 49.1001 404 50.0001 403.6 51.0001C403.5 51.2001 403.4 51.4001 403.3 51.5001C402.8 52.4001 401.9 52.9001 401.1 52.7001C400.3 52.5001 399.6 51.8001 399.6 50.9001C399.6 49.7001 399.7 48.6001 400.2 47.4001C400.4 46.9001 400.5 46.4001 400.7 45.8001C400.9 44.9001 401.2 44.1001 401.4 43.2001C401.6 42.5001 401.8 41.9001 401.7 41.2001C401.7 40.9001 401.3 40.7001 401.1 40.9001C400.8 41.1001 400.6 41.4001 400.3 41.6001C399.1 42.8001 398.1 44.0001 397.2 45.3001C396.4 46.5001 395.3 47.5001 394.2 48.5001C393.5 49.1001 392.7 49.2001 392 48.8001C390.7 48.2001 389.8 47.2001 389.7 45.6001C389.7 44.8001 389.7 44.0001 389.8 43.3001C389.8 42.6001 389.6 42.1001 389.3 42.1001C388.8 42.1001 388.5 42.5001 388.2 42.8001C388.1 42.9001 388 43.0001 387.9 43.2001C387.1 44.6001 386.3 46.0001 385.5 47.4001C385.3 47.8001 385 48.2001 384.7 48.5001C383.9 49.3001 382.9 49.5001 382 49.0001C381.2 48.6001 380.8 47.9001 380.5 47.0001C380.3 46.6001 380.4 46.1001 380.6 45.7001C380.8 45.4001 381 45.1001 381.2 44.8001C381.6 44.1001 382 43.3001 382.5 42.6001C382.8 42.0001 383.2 41.4001 383.5 40.7001C383.9 40.0001 384.2 39.3001 384.6 38.5001C384.9 37.9001 385.2 37.3001 385.6 36.8001C386.1 36.1001 386.8 35.6001 387.7 35.4001C388.3 35.3001 388.9 35.1001 389.4 34.9001C390.5 34.4001 391.4 34.6001 392.3 35.3001C393.3 36.2001 394.1 37.2001 394.3 38.6001C394.4 39.0001 394.4 39.4001 394.5 39.7001C394.6 40.0001 395 40.2001 395.3 39.9001C395.8 39.5001 396.3 39.1001 396.6 38.6001C397.5 37.4001 398.5 36.4001 399.7 35.5001C400.4 34.9001 401.1 34.3001 401.8 33.8001C403.6 32.4001 405.6 32.8001 406.6 34.7001C407 36.1001 407.3 37.3001 407.1 38.6001Z" fill="#1C1C1C"/>
<path d="M365.8 42.5998C365.9 42.0998 365.9 41.4998 366 40.9998C366.1 40.1998 365.9 39.5998 365.6 38.8998C365.4 38.4998 365.1 38.1998 364.6 38.1998C363.8 38.1998 362.9 38.2998 362.2 38.9998C361.5 39.5998 360.8 39.9998 360 40.1998C359.5 40.2998 359.1 40.5998 358.7 40.8998C358 41.2998 357.4 41.6998 356.7 41.9998C355.5 42.4998 354.1 41.7998 353.8 40.5998C353.6 39.7998 353.8 38.9998 354.5 38.4998C355 38.0998 355.5 37.8998 356.1 37.5998C356.7 37.2998 357.3 36.9998 357.8 36.6998C358.1 36.5998 358.3 36.3998 358.6 36.2998C359.9 35.8998 361.1 35.2998 362.3 34.6998C364.5 33.6998 366.5 34.0998 368.5 34.9998C368.8 35.1998 369.2 35.3998 369.3 35.6998C369.9 36.8998 370.6 37.9998 370.6 39.3998C370.6 39.9998 370.6 40.6998 370.7 41.2998C370.7 41.4998 370.8 41.6998 370.7 41.8998C370.4 43.7998 370.5 45.6998 370 47.5998C369.8 48.2998 369.8 48.9998 369.7 49.5998C369.6 50.6998 369.1 51.5998 368.3 52.3998C367.7 52.9998 366.9 53.3998 366.1 53.0998C365.1 52.7998 364.2 52.9998 363.2 53.2998C362 53.6998 360.8 53.8998 359.5 53.8998C358.4 53.9998 357.3 54.0998 356.1 54.1998C354.2 54.2998 352.7 53.5998 351.5 52.3998C350.6 51.4998 349.7 50.5998 348.9 49.5998C347.7 48.2998 348.4 45.8998 350.1 44.9998C350.9 44.5998 351.7 44.1998 352.6 43.7998C353 43.5998 353.4 43.4998 353.8 43.5998C355.2 43.6998 356.6 43.6998 358 43.8998C358.4 43.8998 358.7 44.0998 359.1 44.1998C360.8 44.7998 362.5 45.4998 364.2 46.0998C364.8 46.2998 365.2 46.1998 365.4 45.3998C365.6 44.3998 365.8 43.4998 365.9 42.4998C365.9 42.5998 365.9 42.5998 365.8 42.5998ZM358.3 49.4998C358.2 49.1998 358.2 49.0998 358.2 48.9998C357.5 48.4998 356.7 48.1998 355.8 48.0998C355.3 47.9998 354.7 47.8998 354.3 48.3998C354.1 48.6998 354.6 49.2998 355.4 49.4998C355.5 49.4998 355.7 49.5998 355.8 49.5998C356.6 49.5998 357.3 49.5998 358.3 49.4998Z" fill="#1C1C1C"/>
<path d="M186.1 48.4002C186 46.9002 186.9 45.5002 187.5 44.1002C188.4 42.2002 189.7 40.7002 190.9 39.1002C191.5 38.4002 192.4 37.8002 193.2 37.4002C194.3 36.8002 196.1 37.6002 196.5 38.7002C196.8 39.5002 196.7 40.3002 196 40.9002C194.7 41.8002 193.8 43.0002 193.1 44.4002C193 44.7002 192.7 45.0002 192.4 45.2002C191.9 45.8002 191.5 46.5002 191.1 47.3002C190.9 47.8002 190.6 48.2002 190.4 48.6002C190.3 48.9002 190.1 49.1002 190.1 49.4002C190.1 49.6002 190.1 49.9002 190.2 50.1002C190.4 50.3002 190.7 50.3002 191 50.2002C191.1 50.1002 191.3 50.1002 191.4 50.0002C192.3 49.2002 193.2 48.5002 194.1 47.7002C195.5 46.4002 196.9 45.2002 198.7 44.6002C200.2 44.1002 201.6 44.8002 201.7 46.3002C201.8 47.8002 202 49.4002 201.5 50.9002C201.2 51.8002 201.4 52.6002 201.5 53.5002C201.6 53.8002 202 53.9002 202.2 53.7002C203.1 52.8002 203.9 51.9002 204.4 50.8002C204.8 49.8002 205.4 48.8002 206.1 48.0002C206.5 47.6002 206.7 47.0002 207 46.4002C207.3 45.7002 207.8 45.2002 208.4 44.8002C209.4 44.2002 210.3 44.4002 210.8 45.4002C210.9 45.6002 211 45.8002 211 46.1002C210.9 47.4002 210.9 48.7002 210 49.9002C208.9 51.5002 207.8 53.2002 206.7 54.8002C206.1 55.7002 203.2 58.0002 202.2 58.4002C200.6 59.0002 199.2 58.5002 198.3 57.1002C197.6 55.8002 196.8 54.5002 196.8 52.9002C196.8 51.7002 196.1 51.6002 195.2 52.3002C194.7 52.7002 194.3 53.1002 193.8 53.5002C192.4 54.9002 190.8 55.3002 189 55.3002C187.6 55.3002 186.7 54.5002 185.9 53.5002C185.8 53.4002 185.7 53.2002 185.7 53.0002C185.7 51.8002 185.3 50.7002 185.6 49.5002C186 49.0002 186.1 48.8002 186.1 48.4002Z" fill="#1C1C1C"/>
<path d="M415.1 41.8002C415.9 41.9002 416.7 42.0002 417.5 42.1002C418.4 42.2002 418.8 41.9002 419 41.0002C419.3 39.7002 419.2 38.4002 418.8 37.1002C418.5 36.1002 418 35.8002 416.9 36.0002C415.8 36.2002 414.8 36.6002 414.2 37.7002C413.7 38.5002 413 39.1002 412.2 39.6002C411.5 40.1002 410.8 40.3002 410.1 39.9002C409.3 39.4002 408.8 38.8002 409 37.8002C409.1 37.3002 409.3 36.7002 409.6 36.3002C410.3 35.1002 411.3 34.2002 412.5 33.5002C413.2 33.1002 413.8 32.7002 414.4 32.3002C415.5 31.5002 416.6 31.3002 417.9 31.4002C420.3 31.7002 421.9 33.1002 423.1 34.8002C423.3 35.0002 423.4 35.3002 423.4 35.6002C423.6 36.3002 423.8 37.1002 424 37.8002C424.1 38.3002 424.1 38.9002 424.1 39.4002C424 40.2002 424 41.0002 424.1 41.9002C424.2 42.6002 424.2 43.2002 424.1 43.9002C423.9 46.3002 423.6 48.8002 423.3 51.2002C423.2 52.3002 422.8 53.2002 421.9 53.9002C421.4 54.3002 420.8 54.4002 420.2 54.3002C418.9 54.1002 417.9 52.9002 417.9 51.6002C417.9 51.2002 418 50.8002 418 50.4002C418 50.1002 417.9 49.7002 417.8 49.4002C417.6 48.8002 417.1 48.7002 416.7 49.2002C415.5 50.5002 413.9 50.7002 412.5 50.8002C410.8 50.9002 409.2 50.4002 408 49.4002C407 48.5002 406.7 47.2002 407.4 46.0002C408.8 43.7002 410.8 42.2002 413.4 41.8002C414 41.8002 414.5 41.9002 415.1 41.8002Z" fill="#1C1C1C"/>
<path d="M230.1 41.3999C230.1 40.9999 230 40.4999 229.8 40.1999C229.4 39.4999 229 38.7999 228.6 38.0999C228.1 37.3999 227.4 36.9999 226.6 36.9999C225.2 36.9999 223.8 36.8999 222.4 37.3999C221.1 37.8999 219.8 38.4999 218.4 38.8999C216.5 39.4999 215.6 40.8999 214.9 42.5999C214.7 43.1999 214.9 43.7999 215.3 44.1999C216 44.8999 216.8 45.0999 217.8 44.5999C218.2 44.3999 218.6 44.1999 219 43.8999C220 42.9999 221.2 42.4999 222.4 41.8999C222.9 41.5999 223.4 41.4999 224 41.3999C224.9 41.1999 225.3 41.6999 225.2 42.4999C225.2 42.5999 225.2 42.7999 225.1 42.8999C224.8 43.8999 224.5 44.9999 224.1 45.9999C223.9 46.6999 223.6 46.8999 222.8 46.7999C222 46.6999 221.3 46.5999 220.7 46.5999C219.6 46.6999 218.7 46.6999 217.8 46.7999C217.3 46.8999 216.8 46.9999 216.4 47.1999C215.1 47.7999 213.9 48.3999 212.6 49.0999C212.1 49.3999 211.7 49.7999 211.5 50.2999C210.6 52.3999 211.7 54.3999 213.9 54.5999C214.8 54.6999 215.7 54.6999 216.7 54.7999C218 54.8999 219.3 54.8999 220.6 54.4999C220.8 54.3999 221.1 54.3999 221.3 54.3999C222 54.2999 222.6 54.3999 223 54.8999C223.2 55.0999 223.5 55.3999 223.7 55.5999C225 56.5999 227.5 56.0999 227.9 53.7999C228 52.9999 228.3 52.2999 228.5 51.4999C228.7 50.7999 228.9 50.0999 228.9 49.2999C229 48.3999 229.2 47.5999 229.5 46.6999C230.2 44.8999 230.2 43.1999 230.1 41.3999ZM221.5 50.0999C221.4 50.2999 221.2 50.3999 221 50.3999C220.9 50.5999 220.7 50.6999 220.5 50.7999C220.1 50.9999 219.7 51.0999 219.3 51.1999C218.9 51.2999 218.4 51.3999 217.9 51.4999C217.5 51.5999 217.1 51.5999 216.7 51.5999C216.6 51.5999 216.5 51.4999 216.4 51.4999C216 51.4999 215.8 51.0999 216 50.6999C217 49.1999 218.9 49.0999 220.4 49.2999C220.7 49.1999 220.9 49.2999 221 49.3999C221 49.3999 221 49.3999 221.1 49.3999C221.4 49.4999 221.6 49.8999 221.5 50.0999Z" fill="#1C1C1C"/>
<path d="M230.1 50.7001C230.3 49.8001 230.5 48.9001 230.8 48.0001C231 47.2001 231.2 46.4001 231.2 45.5001C231.2 45.1001 231.2 44.7001 231.3 44.3001C231.6 43.2001 231.9 42.2001 232.2 41.2001C232.7 39.9001 233.2 38.6001 233.6 37.3001C233.9 36.3001 234.1 35.3001 234.5 34.3001C235.2 32.2001 236 30.2001 236.7 28.1001C237.4 25.8001 238.7 23.7001 239.3 21.4001C239.4 21.1001 239.5 20.8001 239.6 20.6001C240.5 18.9001 241.3 17.2001 242.2 15.5001C242.5 14.9001 242.9 14.4001 243.3 13.9001C244 13.0001 244.7 12.8001 245.7 13.0001C246.8 13.3001 247.5 14.1001 247.4 15.1001C247.4 16.1001 247.2 17.1001 246.7 18.1001C246 19.5001 245.3 21.0001 244.8 22.5001C244.7 22.9001 244.4 23.3001 244.1 23.7001C243.5 24.6001 243 25.5001 242.9 26.6001C242.8 27.2001 242.5 27.8001 242.3 28.4001C242 29.1001 241.7 29.9001 241.5 30.6001C241.1 31.8001 240.7 33.0001 240.3 34.1001C239.7 35.6001 239.5 37.3001 238.6 38.7001C238.5 38.8001 238.5 39.0001 238.5 39.1001C238.4 40.4001 237.8 41.6001 237.3 42.8001C237.1 43.2001 237.1 43.6001 237 43.9001C236.7 44.6001 236.5 45.3001 236.2 46.0001C235.8 46.7001 235.5 47.4001 235.4 48.2001C235.2 49.2001 234.9 50.1001 234.3 51.0001C233.8 51.7001 233.5 52.4001 233.1 53.1001C232.9 53.4001 232.7 53.8001 232.4 54.1001C231.8 54.7001 231.1 54.7001 230.7 54.0001C230.4 53.3001 230.3 52.6001 230.3 51.8001C230.3 51.5001 230.4 51.1001 230.5 50.8001C230.1 50.7001 230.1 50.7001 230.1 50.7001Z" fill="#1C1C1C"/>
<path d="M278.1 43.9002C277.8 44.1002 277.6 44.2002 277.4 44.3002C277.2 44.6002 277.1 44.9002 276.9 45.2002C276.5 45.9002 276.1 46.6002 275.7 47.3002L275.6 47.4002C274.9 49.2002 273.7 50.7002 272.8 52.4002C272.7 52.5002 272.7 52.7002 272.6 52.8002C272.1 53.7002 271.3 54.1002 270.4 54.0002C269.4 53.8002 268.8 53.1002 268.8 52.1002C268.8 51.6002 268.9 51.1002 269.1 50.7002C269.5 49.5002 269.8 48.2002 270.4 47.0002C271.3 45.4002 271.7 43.6002 272.5 42.0002C272.8 41.4002 273.2 40.8002 273.6 40.2002C274.1 39.5002 274.8 39.0002 275.6 39.1002C276.2 39.1002 276.7 38.8002 277.2 38.4002C277.6 38.1002 278 37.8002 278.5 37.6002C279.9 36.9002 281 37.1002 281.9 38.2002C282.5 38.9002 282.9 39.8002 283.1 40.7002C283.4 41.9002 283.6 43.0002 283.9 44.2002C284 44.7002 284 45.2002 283.7 45.6002C283.3 46.4002 283.2 47.2002 283.1 48.0002C282.9 50.2002 282.5 52.3002 282 54.4002C281.9 54.9002 281.7 55.4002 281.5 55.8002C281.3 56.3002 281 56.8002 280.5 57.1002C279.3 58.0002 277.9 57.8002 277.4 56.5002C277.2 55.9002 277.1 55.2002 277.1 54.5002C277.2 53.0002 277.5 51.6002 277.7 50.1002C277.9 48.8002 278.2 47.5002 278.4 46.2002C278.8 45.6002 278.5 44.8002 278.1 43.9002Z" fill="#1C1C1C"/>
<path d="M465.3 38.4998C464.7 38.5998 464.5 38.8998 464.4 39.1998C463.7 40.4998 463 41.7998 462.3 42.9998C461.8 43.7998 461.3 44.4998 460.8 45.2998C460.4 45.9998 460 46.6998 459.5 47.3998C458.7 48.4998 457.4 48.7998 456.4 47.9998C455.5 47.1998 455.3 46.1998 455.8 44.9998C456 44.4998 456.3 43.9998 456.6 43.4998C457 42.7998 457.4 41.9998 457.9 41.2998C458.7 40.0998 459.5 38.7998 460.5 37.7998C461 37.2998 461.6 36.6998 462 36.0998C462.7 35.0998 463.7 34.3998 464.8 33.8998C465.9 33.3998 466.9 33.5998 467.8 34.2998C468.3 34.7998 468.7 35.3998 469 35.9998C469.5 37.0998 469.6 38.2998 469.8 39.4998C470 40.7998 470.3 41.9998 470.4 43.2998C470.5 44.4998 470.4 45.7998 470.4 47.0998C470.4 47.2998 470.3 47.4998 470.3 47.6998C470.1 48.2998 469.7 48.7998 469.1 48.9998C468.4 49.1998 467.9 48.8998 467.6 48.3998C467 47.4998 466.5 46.3998 466.5 45.1998C466.5 43.5998 466.2 42.0998 465.8 40.6998C465.7 39.8998 465.5 39.1998 465.3 38.4998Z" fill="#1C1C1C"/>
<path d="M456.5 37.6002C456.5 37.7002 456.4 38.1002 456.2 38.5002C455.7 39.7002 455.1 41.0002 454.2 42.1002C453.8 42.5002 453.6 43.0002 453.4 43.5002C452.8 45.1002 451.8 46.5002 450.5 47.7002C449.9 48.3002 449.2 48.5002 448.5 48.3002C447.7 48.0002 447.3 47.4002 447.3 46.6002C447.3 46.1002 447.4 45.6002 447.5 45.2002C447.9 43.7002 448.7 42.3002 449.4 40.9002C449.7 40.3002 450 39.6002 450.2 39.0002C450.7 37.4002 451.8 36.2002 453.1 35.2002C454.3 34.3002 455.5 34.5002 456.1 35.8002C456.6 36.2002 456.6 36.7002 456.5 37.6002Z" fill="#1C1C1C"/>
<path d="M311.9 57.6002C312.1 56.9002 312.2 56.3002 312.4 55.6002C312.7 54.3002 312.8 53.1002 313.2 51.8002C313.5 50.6002 313.8 49.4002 314.3 48.2002C314.7 47.2002 315.7 46.7002 316.7 46.8002C317.3 46.9002 317.9 47.1002 318.3 47.6002C319.1 48.7002 319.5 49.9002 319 51.4002C318.5 52.7002 318.1 53.9002 317.4 55.1002C317 55.9002 316.3 56.7002 315.6 57.4002C315 58.0002 314.3 58.6002 313.7 59.2002C313.5 59.4002 313.3 59.5002 313.1 59.6002C312.5 59.9002 312 59.6002 311.9 59.0002C311.9 58.9002 311.9 58.7002 311.9 58.6002C311.9 58.3002 311.9 57.9002 311.9 57.6002Z" fill="#1C1C1C"/>
<path d="M272.1 31.2002C271.8 33.0002 271.5 34.2002 270.5 35.2002C270.1 35.7002 269.8 36.3002 269.4 36.8002C268.6 37.8002 267.5 38.2002 266.4 37.9002C265.5 37.6002 265 37.0002 265 36.0002C265 35.4002 265.2 34.8002 265.4 34.3002C265.8 33.0002 266.3 31.8002 266.8 30.5002C266.9 30.3002 267 30.0002 267.1 29.8002C267.8 28.4002 268.8 28.0002 270.2 28.5002C271.5 29.0002 272.2 30.2002 272.1 31.2002Z" fill="#1C1C1C"/>
<path d="M455 25.7998C455.1 25.4998 455.1 25.1998 455.2 24.7998C455.4 23.6998 456.1 23.1998 457.1 22.7998C458 22.4998 458.7 22.8998 459.3 23.4998C460.4 24.8998 460 27.4998 458.4 28.5998C457.6 29.1998 456.7 29.0998 456 28.4998C455.2 27.8998 454.9 26.8998 455 25.7998Z" fill="#1C1C1C"/>
<path d="M358.7 95.6001C359.3 96.3001 360.1 96.5001 360.9 96.5001C362.1 96.6001 363.3 96.6001 364.5 96.7001C364.7 96.7001 365 96.7001 365.2 96.6001C365.9 96.5001 366 96.1001 365.8 95.6001C365.8 95.5001 365.7 95.4001 365.7 95.3001C364.9 93.9001 365.2 92.6001 366.4 91.3001C367.5 90.1001 368.7 89.0001 370.4 88.6001C371 88.5001 371.5 88.2001 372.1 88.0001C372.7 87.8001 373.2 87.7001 373.8 87.8001C375.3 88.1001 376.8 88.3001 378.2 89.1001C378.3 89.2001 378.5 89.2001 378.6 89.2001C378.9 89.3001 379.2 89.1001 379.3 88.8001C379.7 87.6001 380.1 86.3001 380.5 85.1001C380.7 84.6001 380.7 84.0001 380.9 83.5001C381.4 82.4001 381.9 81.3001 381.9 80.1001C381.9 79.9001 382 79.6001 382.1 79.4001C383 77.6001 383.3 75.7001 383.7 73.8001C383.8 73.2001 384 72.6001 384.4 72.0001C384.7 71.5001 384.9 71.0001 385 70.5001C385.3 69.3001 385.6 68.0001 385.9 66.7001C386.1 65.7001 386.5 64.8001 387 63.9001C387.5 63.0001 388.1 62.6001 388.7 62.7001C389.5 62.9001 390.1 63.6001 390.1 64.4001C390.1 64.6001 390.1 64.8001 390.1 65.0001C389.9 66.1001 389.8 67.2001 389.5 68.3001C389 69.6001 388.7 71.0001 388.3 72.3001C387.9 73.7001 387.7 75.2001 387.4 76.6001C387.1 78.0001 386.8 79.4001 386.5 80.8001C386.4 81.1001 386.3 81.4001 386.2 81.6001C386.1 81.9001 385.9 82.2001 385.9 82.4001C385.7 84.4001 384.6 86.2001 384.2 88.1001C383.8 89.8001 383.5 91.5001 383.1 93.2001C383 93.8001 382.9 94.4001 382.6 94.9001C381.8 96.3001 381.3 97.7001 381 99.2001C380.9 99.5001 380.9 99.8001 380.8 100.1C380.6 100.9 380 101.4 379.2 101.6C378.4 101.7 377.7 101.5 377.2 100.8C376.9 100.3 376.8 99.8001 376.8 99.2001C376.8 97.7001 376.8 97.7001 375.3 97.9001C374.9 97.9001 374.5 97.9001 374.1 98.0001C373 98.1001 371.9 98.1001 370.9 98.3001C370.5 98.4001 370 98.5001 369.6 98.8001C368.6 99.4001 367.5 99.6001 366.5 99.8001C365 100 363.6 100.1 362.1 100.5C361.9 100.6 361.7 100.6 361.5 100.6C359.8 100.4 358 100.3 356.4 99.6001C355.8 99.3001 355.3 98.9001 354.8 98.5001C354.5 98.3001 354.4 98.0001 354.1 97.8001C353.6 97.2001 353 97.1001 352.1 97.4001C350.6 97.9001 349.1 98.1001 347.6 97.9001C347 97.8001 346.4 97.9001 345.9 97.8001C345 97.7001 344.3 97.8001 343.5 98.3001C343.1 98.6001 342.7 98.7001 342.2 98.6001C341.4 98.5001 340.8 97.8001 341 97.0001C341.2 96.2001 341.1 95.6001 340.5 95.0001C340.4 94.9001 340.3 94.7001 340.2 94.5001C340 93.1001 339.6 91.8001 340 90.3001C340.4 89.2001 340.7 88.0001 341.2 86.9001C341.4 86.5001 341.6 86.1001 341.9 85.7001C342.8 84.7001 343.8 83.7001 344.8 82.8001C345.3 82.4001 345.9 82.0001 346.5 81.8001C348.2 81.3001 349.7 81.4001 350.9 82.6001C351.7 83.4001 352.1 84.3001 352 85.5001C352 87.5001 351 89.1001 350 90.7001C349.7 91.2001 349.3 91.6001 349 92.0001C348.8 92.2001 348.7 92.5001 348.5 92.8001C348.3 93.3001 348.6 93.7001 349.1 93.7001C349.2 93.7001 349.3 93.7001 349.4 93.7001C350.2 93.6001 351.1 93.4001 351.9 93.3001C352.8 93.1001 353.4 92.6001 353.8 91.7001C354.2 90.9001 354.6 90.1001 355 89.3001C355.3 88.7001 355.7 88.1001 355.8 87.4001C355.9 86.9001 356.1 86.3001 356.5 85.9001C357.5 84.7001 358.5 83.6001 359.5 82.4001C360.2 81.5001 361.1 81.1001 362.2 81.2001C363.5 81.3001 364.6 81.6001 365.1 82.8001C365.9 84.5001 366.1 86.3001 364.9 88.1001C364.8 88.3001 364.6 88.5001 364.5 88.7001C363.9 90.2001 362.8 91.2001 361.7 92.3001C360.7 93.2001 359.9 94.2001 358.8 95.0001C358.8 95.3001 358.8 95.4001 358.7 95.6001ZM376.2 93.3001C376.1 93.1001 376.1 92.9001 375.9 92.8001C374.9 92.0001 372.5 92.2001 371.4 93.1001C371.2 93.3001 371.2 93.7001 371.5 93.8001C372.4 94.2001 373.5 94.1001 374.5 94.0001C375.1 93.9001 375.7 93.8001 376.2 93.3001ZM347.8 86.6001C347.5 86.7001 347.4 86.7001 347.3 86.8001C345.7 87.9001 345.1 89.6001 344.4 91.3001C344.4 91.4001 344.5 91.7001 344.6 91.8001C344.7 91.9001 345 91.8001 345.1 91.7001C346.2 90.5001 347.1 89.2001 347.7 87.6001C347.8 87.2001 347.7 86.9001 347.8 86.6001Z" fill="#1C1C1C"/>
<path d="M478.2 116.1C478.4 114.1 478.8 112.2 479.6 110.3C480.4 108.5 481 106.7 481.5 104.8C481.8 103.7 482.1 102.6 482.5 101.5C483 100 483.5 98.6002 484 97.1002C484.3 96.1002 484.6 95.1002 485.1 94.2002C485.3 93.9002 485.3 93.5002 485.4 93.2002C485.6 92.6002 485.8 92.0002 486 91.3002C486.5 89.6002 487.1 88.0002 487.6 86.3002C487.8 85.7002 487.9 85.1002 488 84.6002C488.2 83.6002 488.6 82.7002 489.4 82.0002C490.6 80.9002 491.7 79.9002 493.2 79.2002C494.1 78.8002 495 78.3002 495.9 77.9002C496.9 77.4002 498 77.3002 499.1 77.1002C501.1 76.8002 502.7 78.4002 502.7 80.1002C502.8 81.9002 502.4 83.7002 501.3 85.3002C501.1 85.7002 500.8 86.1002 500.6 86.5002C500.4 86.9002 500.7 87.2002 501.1 87.2002C501.3 87.2002 501.6 87.1002 501.8 87.1002C502.7 86.8002 503.5 86.6002 504.4 86.3002C505.6 85.9002 506.8 86.0002 508 86.0002C508.5 86.0002 509 86.1002 509.4 86.1002C510 86.1002 510.4 85.7002 510.4 85.1002C510.4 84.8002 510.4 84.4002 510.3 84.1002C510.1 83.5002 510 82.8002 510 82.1002C510 81.9002 510 81.6002 509.9 81.4002C509.6 80.3002 508.8 80.0002 507.8 80.6002C507.2 80.9002 506.6 81.4002 506 81.8002C505.3 82.2002 504.6 82.2002 504.1 81.8002C503.7 81.4002 503.5 81.0002 503.7 80.4002C503.9 79.5002 504.4 78.8002 505.2 78.4002C506.1 78.0002 506.9 77.6002 507.8 77.2002C508 77.1002 508.2 77.1002 508.4 77.0002C510.1 76.7002 512.4 77.7002 513.2 79.1002C513.9 80.4002 514.3 81.8002 514.3 83.5002C514.2 84.8002 514.4 86.1002 514.7 87.4002C515 88.7002 514.7 89.9002 514.2 91.1002C513.6 92.6002 511.9 93.1002 510.7 92.1002C510.5 91.9002 510.3 91.7002 510.1 91.5002C509.7 91.0002 509.2 91.0002 508.5 91.3002C507.3 91.9002 506.1 92.1002 504.8 92.2002C503.7 92.3002 502.6 92.6002 501.4 92.4002C500.6 92.3002 499.9 92.2002 499.2 91.8002C498.4 91.3002 497.7 91.5002 497 92.4002C496.9 92.5002 496.8 92.6002 496.7 92.8002C495.3 94.9002 493.2 95.8002 490.9 96.3002C490.7 96.3002 490.5 96.3002 490.3 96.3002C489.5 96.4002 489.3 96.7002 489 97.4002C488.8 98.1002 488.6 98.7002 488.4 99.4002C488.1 100.2 487.8 100.9 487.5 101.6C487.3 102.1 487.2 102.6 487.1 103C486.9 104.4 486.5 105.8 485.8 107.1C485 108.5 484.4 110 484.2 111.6C484.2 112 484 112.4 483.8 112.7C483.3 113.6 482.9 114.6 482.8 115.7C482.6 117.2 481.8 118.3 480.6 119.2C480.4 119.4 480.2 119.5 480 119.6C479.2 120 478.5 119.8 478.2 119C478 118.5 478 118 478 117.4C478.1 116.9 478.2 116.5 478.2 116.1ZM491.4 89.5002C491.2 90.3002 491.6 90.7002 492.3 90.5002C493.1 90.3002 493.7 89.8002 494.2 89.1002C494.7 88.3002 495.2 87.6002 495.7 86.8002C496.2 85.9002 496.7 85.0002 497.1 84.1002C497.3 83.7002 497.5 83.2002 497.7 82.7002C497.9 82.3002 498.3 81.8002 497.9 81.4002C497.5 81.0002 497 81.3002 496.5 81.6002C495.5 82.1002 494.5 82.7002 493.5 83.3002C493.1 83.5002 492.9 83.9002 492.8 84.4002C492.8 84.6002 492.7 84.8002 492.7 85.0002C492.6 86.3002 492.3 87.6002 491.7 88.9002C491.6 89.1002 491.5 89.4002 491.4 89.5002Z" fill="#1C1C1C"/>
<path d="M485.1 85.9999C484.9 85.5999 484.6 85.1999 484.4 84.7999C483.8 83.6999 482.9 83.3999 481.6 83.4999C481 83.5999 480.4 83.6999 479.9 84.0999C479.4 84.4999 478.9 84.9999 478.4 85.3999C477.6 85.9999 476.8 86.6999 476 87.2999C475.8 87.3999 475.6 87.4999 475.3 87.5999C474.9 86.8999 475.1 86.3999 475.1 85.8999C475.1 84.4999 474.8 83.1999 473.8 82.2999C472.7 81.2999 471.7 81.0999 470.2 81.7999C467.1 83.2999 466.9 83.3999 464.3 85.6999C463.3 86.4999 462.4 87.3999 461.8 88.4999C461.5 89.0999 461.1 89.5999 460.7 90.0999C460.5 90.2999 460.3 90.4999 460.1 90.6999C459.5 90.2999 459.7 89.7999 459.8 89.2999C460 88.3999 460 87.4999 459.8 86.5999C459.7 86.2999 459.7 85.9999 459.7 85.6999C459.7 84.1999 459.1 82.9999 458.4 81.7999C457.5 80.1999 456 79.3999 454 79.3999C453.2 79.3999 452.6 79.7999 451.9 79.9999C450.1 80.5999 449.2 81.8999 448.5 83.4999C448 84.5999 448.4 85.9999 449.3 86.5999C450.3 87.3999 451.6 86.9999 452.2 85.6999C452.3 85.4999 452.3 85.2999 452.4 85.0999C452.6 84.7999 452.8 84.4999 453.1 84.2999C454.1 83.4999 454.8 83.6999 455 84.8999C455.2 85.9999 455.3 87.1999 455.5 88.2999C455.5 88.3999 455.5 88.5999 455.5 88.6999C455.5 89.4999 455.1 89.8999 454.3 89.7999C454.1 89.7999 453.8 89.6999 453.6 89.5999C452 89.0999 450.3 89.2999 448.7 89.2999C448.3 89.2999 447.9 89.3999 447.6 89.5999C445.7 90.2999 444 91.3999 442.5 92.7999C442.2 93.0999 441.9 93.4999 441.6 93.8999C441.3 94.3999 441.2 94.8999 441.4 95.4999C441.8 96.8999 443.5 98.1999 444.8 98.0999C445.5 97.9999 446.2 98.1999 447 98.1999C447.4 98.1999 447.9 98.1999 448.3 98.1999C449.7 97.9999 451.1 97.6999 452.5 97.3999C452.8 97.2999 453.2 97.0999 453.5 96.9999C453.8 96.8999 454.1 96.7999 454.3 96.6999C454.9 96.4999 455.4 96.4999 455.8 96.8999C456.1 97.0999 456.3 97.2999 456.6 97.4999C457.7 97.9999 459 97.4999 459.5 96.2999C459.6 96.0999 459.6 95.7999 459.7 95.5999C459.8 95.3999 459.8 95.0999 460.2 94.9999C460.4 95.0999 460.7 95.2999 460.9 95.4999C461.8 96.0999 462.6 95.9999 463.5 95.3999C464.3 94.7999 464.8 94.1999 465.1 93.2999C465.2 92.7999 465.4 92.2999 465.6 91.8999C466 90.9999 466.5 90.0999 467 89.1999C467.6 87.9999 468.6 87.0999 469.8 86.4999C470.2 86.2999 470.5 86.4999 470.6 86.7999C470.7 87.2999 470.7 87.7999 470.6 88.1999C470.4 89.7999 470.2 91.2999 470 92.8999C469.8 94.2999 470.2 95.0999 471.4 95.6999C471.7 95.7999 472 95.9999 472.3 96.0999C473.4 96.3999 474.4 96.2999 475.2 94.9999C475.5 94.3999 475.9 93.8999 476.4 93.3999C477.3 92.4999 478.2 91.4999 479 90.3999C479.2 90.1999 479.4 89.9999 479.7 89.7999C479.9 89.5999 480.3 89.7999 480.2 89.9999C480.1 90.3999 480 90.7999 479.9 91.0999C479.4 92.2999 479.7 93.8999 480.6 94.6999C481.4 95.3999 482.4 95.3999 483.2 94.4999C484.1 93.5999 484.8 92.5999 484.9 91.1999C485 89.9999 485.1 88.8999 485.3 87.6999C485.5 86.9999 485.4 86.4999 485.1 85.9999ZM452.5 93.5999C452.3 93.6999 452.2 93.6999 452.1 93.6999C451.2 93.7999 450.4 94.2999 449.6 94.5999C448.7 94.9999 447.7 94.9999 446.9 94.4999C446.7 94.3999 446.6 94.0999 446.7 93.8999C447.1 92.7999 448.4 92.3999 449.5 92.2999C450.6 92.1999 451.8 92.2999 452.8 92.4999C453.4 92.6999 453.2 93.6999 452.5 93.5999Z" fill="#1C1C1C"/>
<path d="M694.2 41.7998C694.4 41.5998 694.5 41.4998 694.5 41.3998C694.9 40.4998 695.2 39.4998 695.6 38.5998C695.8 37.8998 696 37.2998 696.1 36.5998C696.3 35.3998 696.6 34.2998 697 33.0998C697.2 32.5998 697.4 32.0998 697.4 31.6998C697.5 30.2998 698 28.8998 698.4 27.4998C698.7 26.5998 698.8 25.7998 699 24.8998C699.3 23.4998 699.6 22.1998 699.9 20.7998C700 20.4998 700.2 20.0998 700.3 19.7998C700.7 19.0998 701 18.3998 701.1 17.5998C701.2 16.9998 701.4 16.4998 701.6 15.8998C701.9 14.9998 702.3 14.0998 702.6 13.1998C702.7 12.9998 702.7 12.6998 702.8 12.4998C703.4 11.2998 704.8 10.6998 705.9 11.2998C706.8 11.7998 707.3 12.5998 707.3 13.5998C707.4 14.7998 707.3 15.9998 706.8 17.1998C706.3 18.3998 706 19.5998 705.6 20.6998C705.2 21.8998 705 23.1998 704.7 24.3998C704.6 24.8998 704.4 25.2998 704.1 25.7998C703.8 26.3998 703.6 27.0998 703.5 27.7998C703.1 29.9998 702.8 32.2998 702.1 34.4998C702 34.7998 701.8 35.1998 701.7 35.4998C701.1 36.6998 700.6 37.8998 700.4 39.1998C700.3 39.6998 700.2 40.2998 700.1 40.7998C699.8 41.9998 699.5 43.1998 699.3 44.3998C699 45.9998 698.4 47.5998 697.9 49.0998C697.7 49.5998 697.3 50.0998 696.9 50.3998C696.4 50.6998 695.8 50.7998 695.4 50.4998C694.6 49.9998 693.9 49.2998 694 48.1998C694 47.3998 694 46.4998 694 45.6998C694 45.3998 694 45.0998 693.9 44.7998C693.8 44.3998 693.5 44.2998 693.1 44.3998C693 44.4998 692.8 44.5998 692.7 44.5998C691.7 45.1998 691 45.1998 690.2 44.4998C690 44.2998 689.8 44.0998 689.6 43.8998C689.4 43.6998 689.2 43.4998 688.9 43.3998C688.4 43.0998 688 43.2998 687.7 43.8998C687.6 43.9998 687.6 44.1998 687.5 44.2998C687.1 45.1998 686.4 45.7998 685.5 45.9998C683.7 46.2998 681.9 46.6998 680.1 46.5998C679.6 46.5998 679 46.4998 678.6 46.1998C677.9 45.7998 677.3 45.2998 676.6 44.8998C675.3 43.9998 675.2 41.3998 676.3 39.9998C677.5 38.5998 679 38.0998 680.7 37.8998C681.6 37.7998 682.6 37.7998 683.5 37.7998C684.6 37.6998 685.6 37.8998 686.6 38.2998C687 38.4998 687.5 38.8998 688 38.4998C688.6 38.0998 688.2 37.4998 688.1 36.9998C688 36.4998 688 36.0998 687.9 35.5998C687.7 34.3998 687.2 33.2998 686.6 32.2998C686.2 31.5998 685.5 31.2998 684.7 31.3998C684.3 31.4998 683.8 31.5998 683.4 31.5998C682.3 31.6998 681.4 32.0998 680.8 33.0998C680.6 33.3998 680.3 33.5998 680 33.7998C679.5 34.1998 678.9 34.1998 678.3 33.9998C676.9 33.3998 676.3 31.5998 677 30.1998C677.3 29.6998 677.7 29.2998 678.2 28.9998C679.4 28.3998 680.6 27.8998 681.8 27.3998C682.1 27.2998 682.4 27.2998 682.7 27.2998C683.2 27.1998 683.8 27.0998 684.3 27.0998C686.5 26.8998 688.4 27.2998 689.8 29.0998C690.5 29.9998 691 30.9998 691.4 31.9998C692.3 33.9998 692.6 36.1998 693 38.3998C693.2 39.1998 693.4 40.0998 693.7 40.8998C693.9 41.4998 694.1 41.5998 694.2 41.7998Z" fill="#1C1C1C"/>
<path d="M734.7 85.1C734.8 82.9 734.5 80.7 733.3 79.2C732.2 77.8 730.9 77.5 729.2 78.2C729 78.3 728.8 78.3 728.6 78.4C728.2 78.1 728.3 77.7 728.4 77.4C728.8 76.3 729.1 75.2 729.5 74.2C730.4 72 731.2 69.6 732.4 67.5C732.9 66.6 733.3 65.6 733.6 64.6C733.8 63.6 734.2 62.7 734.8 61.9C735.4 61.1 735.8 60.1 736 59.2C736.2 58.3 735.7 57.6 734.8 57.4C734.2 57.3 733.6 57.5 733.2 57.9C732.9 58.1 732.7 58.4 732.5 58.7C731.8 59.9 731.2 61.2 730.5 62.4C729.5 64.1 729.2 66 728 67.6C727.9 67.8 727.8 68 727.8 68.1C727.2 69.6 726.6 71.1 726 72.7C725.6 73.7 725 74.7 725 75.8C724.9 76.8 724.6 77.8 724.1 78.8C723.9 79.3 723.7 79.9 723.6 80.5C723.5 80.8 723.5 81.2 723.4 81.5C722.6 84.1 721.9 86.7 721.1 89.3C720.8 90.2 720.6 91.1 720.4 92C720.4 92.2 720.3 92.4 720.3 92.6C720.3 93.5 720.9 94.3 721.8 94.5C722.7 94.6 723.5 94.1 723.9 93.2C724 93 724 92.7 724.1 92.5C724.3 92 724.5 91.6 724.7 91.1C725.3 89.9 725.9 88.7 726.5 87.5C726.7 87.2 726.8 86.9 727 86.6C727.4 85.8 727.9 85.1 728.3 84.3C728.6 83.6 729.1 83 729.7 82.5C729.8 82.4 730 82.3 730.2 82.3C730.6 83 730.6 83 730.6 83.7C730.6 84.5 730.6 85.3 730.6 86C730.5 87.3 730.4 88.6 730.4 89.9C730.4 90.7 730.3 91.6 730.4 92.4C730.4 93 730.7 93.5 731.1 94C731.7 94.7 732.6 94.7 733.2 93.8C733.3 93.6 733.5 93.4 733.6 93.1C733.8 92.5 734.1 91.9 734.2 91.3C734.3 89.5 734.7 87.3 734.7 85.1Z" fill="#1C1C1C"/>
<path d="M746.6 80.6998C746.2 79.9998 745.6 79.3998 745 78.9998C743.6 77.9998 741.5 77.3998 739.8 78.1998C738.2 78.9998 736.7 80.5998 736.1 82.2998C736.1 82.3998 736.1 82.4998 736.1 82.4998C736 82.6998 735.9 82.9998 735.8 83.1998C735.8 83.4998 735.8 83.7998 735.8 84.1998C735.8 84.4998 735.7 84.7998 735.7 85.0998C736.1 86.4998 737.4 87.4998 738.6 88.0998C739.5 88.4998 740.4 88.7998 741.3 88.8998C741.6 88.8998 741.9 88.7998 742.2 88.7998C744.2 88.5998 745.5 87.5998 746.2 85.6998C746.4 85.0998 746.5 84.4998 746.5 83.9998C746.5 83.4998 746.8 83.0998 746.9 82.5998C747 81.8998 746.9 81.1998 746.6 80.6998ZM743.7 83.0998C743.7 83.4998 743.6 83.7998 743.4 84.0998C742.7 85.2998 740.9 85.3998 740 84.3998C739.7 84.0998 739.5 83.5998 739.6 83.0998C739.7 82.5998 740.6 81.9998 741 81.6998C741.6 81.1998 742.4 81.1998 743.1 81.4998C743.2 81.5998 743.3 81.5998 743.3 81.6998C743.6 81.8998 743.8 82.0998 743.8 82.3998C743.7 82.6998 743.7 82.8998 743.7 83.0998Z" fill="#1C1C1C"/>
<path d="M684.5 66.0001C684.4 67.1001 683.8 68.5001 683.1 69.8001C682.2 71.3001 681.5 73.0001 680.3 74.3001C680.1 74.5001 680 74.7001 679.9 75.0001C678.9 77.1001 677.6 79.1001 676.3 81.1001C675.6 82.2001 674.7 83.2001 673.9 84.2001C673.5 84.7001 673.2 85.1001 672.9 85.6001C672.7 85.9001 672.9 86.2001 673.2 86.3001C673.6 86.3001 674 86.4001 674.4 86.3001C674.8 86.3001 675.2 86.1001 675.6 86.2001C677.2 86.4001 679 86.0001 680.6 86.0001C682.4 86.0001 684.3 85.8001 686.1 86.4001C686.9 86.6001 687.8 86.6001 688.7 86.7001C689.4 86.8001 690 87.0001 690.6 87.1001C690.9 87.2001 691.1 87.3001 691.3 87.5001C691.8 87.9001 691.7 88.5001 691.1 89.0001C690.9 89.2001 690.6 89.3001 690.3 89.5001C689.4 89.9001 688.5 90.2001 687.5 90.4001C686.1 90.6001 684.7 90.8001 683.3 91.0001C682.9 91.1001 682.5 91.2001 682.1 91.1001C680.9 90.9001 679.7 91.1001 678.4 91.2001C675.7 91.5001 673.1 91.5001 670.4 91.6001C669.7 91.6001 668.9 91.5001 668.2 91.5001C667.4 91.4001 666.7 91.1001 666.1 90.5001C665.3 89.8001 664.9 88.9001 665.3 87.7001C665.4 87.5001 665.4 87.2001 665.5 87.0001C665.6 86.1001 666.1 85.3001 666.8 84.6001C667.6 83.7001 668.5 82.8001 669.3 81.9001C669.5 81.7001 669.6 81.5001 669.8 81.3001C670.6 80.0001 671.5 78.7001 672.6 77.7001C672.8 77.5001 672.9 77.3001 673.1 77.1001C674 75.7001 675 74.3001 675.9 72.9001C676 72.7001 676.2 72.5001 676.3 72.2001C676.9 71.0001 677.6 69.8001 678.4 68.7001C678.8 68.1001 679.2 67.5001 679.3 66.8001C679.4 66.1001 679.1 65.8001 678.4 66.0001C677.9 66.1001 677.4 66.3001 676.9 66.5001C675 67.3001 673.1 68.0001 671.3 68.8001C670.7 69.0001 670.3 69.5001 669.8 69.9001C669.1 70.4001 668.4 70.7001 667.7 70.6001C666.5 70.4001 665.9 69.4001 666.4 68.2001C666.8 67.3001 667.3 66.6001 668.2 66.1001C668.7 65.8001 669.3 65.4001 669.8 65.0001C670.4 64.5001 671.1 64.3001 671.8 64.1001C672.5 63.9001 673.3 63.6001 674 63.3001C674.3 63.2001 674.7 63.1001 675 62.9001C676.6 62.3001 678.3 61.8001 680 61.5001C680.6 61.4001 681.3 61.2001 681.9 61.2001C683.6 61.0001 685.2 62.6001 684.8 64.4001C684.7 64.8001 684.7 65.2001 684.5 66.0001Z" fill="#1C1C1C"/>
<path d="M708 72.7002C707.8 73.6002 707.6 74.5002 707.4 75.5002C707 77.4002 707 77.5002 708.9 77.6002C709.8 77.6002 710.8 77.6002 711.7 77.6002C712.5 77.6002 713.1 77.7002 713.7 78.1002C714.3 78.5002 714.2 79.1002 713.6 79.7002C713 80.3002 712.3 80.6002 711.5 80.7002C710.9 80.8002 710.2 80.9002 709.6 81.0002C708.7 81.2002 707.8 81.4002 706.9 81.6002C706.3 81.8002 705.9 82.2002 705.8 82.8002C705.6 83.8002 705.1 84.7002 704.9 85.7002C704.5 87.5002 703.9 89.4002 703.3 91.2002C703.1 91.8002 703.1 92.4002 703 93.0002C702.9 94.1002 702.2 95.0002 701.4 95.8002C700.9 96.3002 700.4 96.3002 699.9 96.0002C699.5 95.7002 699.3 95.4002 699.2 94.9002C698.9 93.4002 698.7 91.9002 699.1 90.2002C699.3 89.5002 699.3 88.7002 699.4 88.0002C699.5 86.5002 699.9 85.1002 700.3 83.6002C700.4 83.3002 700.4 83.0002 700.5 82.7002C700.6 82.2002 700.3 81.8002 699.8 81.9002C697.8 82.2002 696 81.5002 694.1 81.3002C693.7 81.3002 693.3 81.2002 692.8 81.2002C691.5 81.2002 690.4 80.7002 689.5 80.0002C688.9 79.6002 688.4 79.0002 687.9 78.5002C686.7 77.3002 686.8 75.8002 687.7 74.2002C688.8 72.2002 689.8 70.1002 690.8 68.1002C690.9 67.9002 691 67.7002 691.1 67.5002C692.4 65.7002 693.7 64.0002 695.5 62.7002C696.3 62.1002 697.1 62.0002 697.9 62.4002C698.7 62.8002 699.1 63.5002 698.9 64.5002C698.8 65.0002 698.6 65.5002 698.3 65.9002C697.9 66.6002 697.5 67.4002 697.2 68.1002C696.8 68.9002 696.2 69.7002 695.7 70.5002C695.2 71.1002 694.7 71.7002 694.2 72.3002C693.5 73.1002 693.1 74.1002 692.9 75.1002C692.7 75.6002 692.9 75.9002 693.4 76.1002C694.6 76.4002 695.8 76.6002 697 76.9002C697.2 76.9002 697.5 77.0002 697.7 76.9002C698.7 76.8002 699.6 76.9002 700.6 77.0002C701.5 77.1002 702 76.8002 702.4 75.9002C702.5 75.5002 702.6 75.1002 702.7 74.7002C702.8 74.1002 702.9 73.4002 703 72.8002C703.2 70.9002 703.8 69.1002 704.7 67.3002C705.4 65.9002 706.7 65.5002 707.8 66.2002C708.7 66.8002 709 67.7002 708.9 68.9002C708.8 69.6002 708.6 70.4002 708.5 71.1002C708.4 71.6002 708.3 72.2002 708.2 72.7002C707.9 72.7002 708 72.7002 708 72.7002Z" fill="#1C1C1C"/>
<path d="M527.4 84.7998C527.4 83.0998 528.5 81.6998 529.7 80.4998C530.1 80.0998 530.5 79.6998 530.9 79.3998C531.7 78.6998 532.5 78.1998 533.6 78.1998C533.9 78.1998 534.2 78.0998 534.5 78.0998C536.5 77.5998 538.4 77.8998 540.1 78.8998C540.5 79.1998 540.9 79.2998 541.3 79.5998C542.3 80.3998 542.5 81.2998 541.9 82.6998C541.7 83.0998 541.5 83.5998 541.5 83.9998C541.5 85.5998 540.8 87.0998 540.2 88.5998C539.9 89.3998 539.6 90.1998 539.3 90.9998C539 91.6998 538.7 92.3998 538.5 93.0998C537.8 94.7998 537 96.4998 536.3 98.1998C535.9 99.0998 535.6 100.1 535.2 101C535.1 101.3 534.9 101.5 534.8 101.8C533.6 103.6 532.5 105.5 531.6 107.5C530.8 109 529.6 110.2 528.4 111.4C527.5 112.3 526.5 112.9 525.4 113.4C523.8 114.1 522.3 114 521 113C520.6 112.7 520.3 112.4 519.9 112.1C518.4 111 517.5 109.6 517.1 107.7C516.9 106.9 516.9 106.2 516.9 105.4C517 104.2 517.5 103.2 518.5 102.5C518.9 102.2 519.4 101.9 519.9 101.6C520.8 101.1 521.3 101.4 521.3 102.4C521.3 103 521.2 103.7 521.2 104.3C521.2 105.8 521.6 107.2 522.4 108.3C522.5 108.5 522.7 108.7 522.9 108.8C523.5 109.4 524.1 109.4 524.9 109C525.6 108.6 526.2 108 526.6 107.3C527.7 105.6 528.8 103.9 529.7 102.1C529.9 101.7 530 101.4 530.2 101C530.3 100.7 530.5 100.3 530.7 100.1C531.6 98.6998 532.4 97.1998 532.9 95.5998C533 95.2998 533.1 94.9998 533.3 94.7998C534.5 93.0998 534.9 91.0998 535.6 89.2998C535.6 89.1998 535.6 89.0998 535.7 88.9998C535.8 88.5998 535.5 88.2998 535.1 88.4998C534.8 88.5998 534.6 88.7998 534.3 88.8998C533.1 89.4998 531.8 89.7998 530.4 89.6998C529.5 89.6998 528.9 89.2998 528.4 88.4998C527.5 87.1998 527.2 86.0998 527.4 84.7998ZM531.6 85.4998C531.8 85.4998 531.9 85.4998 532 85.3998C533.2 84.9998 534 84.2998 534.6 83.1998C534.7 82.9998 534.5 82.6998 534.3 82.6998C533.1 82.8998 532.2 83.4998 531.5 84.4998C531.4 84.5998 531.3 84.7998 531.4 84.8998C531.3 85.1998 531.5 85.3998 531.6 85.4998Z" fill="#1C1C1C"/>
<path d="M414.9 90.9999H414.8C414.9 89.6999 415 88.4999 415.1 87.1999C415.1 86.6999 415.1 86.1999 415 85.7999C414.9 85.1999 414.8 84.6999 414.8 84.0999C414.7 81.7999 413.5 80.1999 411.8 78.8999C411.3 78.4999 410.8 78.3999 410.2 78.3999C408.7 78.2999 407.4 78.7999 406.1 79.5999C405.4 80.0999 404.6 80.5999 403.8 80.7999C402.2 81.3999 400.9 82.5999 399.4 83.4999C398.8 83.8999 398.3 84.3999 397.7 84.7999C397.1 85.3999 397 86.0999 397.4 86.7999C398 87.6999 399 87.8999 399.9 87.0999C400.7 86.3999 401.7 85.9999 402.6 85.4999C403.2 85.1999 403.8 84.8999 404.3 84.4999C405.5 83.6999 406.8 83.1999 408.1 82.6999C408.4 82.5999 408.7 82.4999 409 82.4999C409.9 82.4999 410.5 82.8999 410.6 83.7999C410.7 85.1999 411 86.4999 410.8 87.7999C410.7 88.7999 410.7 89.7999 410.7 90.8999C410.7 91.4999 410.6 92.0999 410.6 92.6999C410.6 92.9999 410.4 93.2999 410.3 93.4999C410.2 93.7999 409.8 93.8999 409.5 93.7999C409.2 93.6999 408.9 93.4999 408.6 93.2999C407.8 92.9999 407 92.5999 406.2 92.3999C405.4 92.1999 404.6 91.9999 403.8 91.8999C403.3 91.7999 402.9 91.6999 402.4 91.6999C401.8 91.5999 401.2 91.5999 400.7 91.4999C400 91.3999 399.4 91.2999 398.7 91.4999C397.8 91.6999 396.9 91.8999 395.9 92.0999C395.3 92.1999 394.7 92.3999 394.2 92.5999C393 93.0999 392 93.9999 391.8 95.2999C391.6 96.5999 392.2 97.6999 393.3 98.2999C394.6 99.0999 396 99.7999 397.7 99.7999C399.5 99.7999 401.2 100.1 403 99.7999C403.3 99.6999 403.6 99.7999 403.9 99.8999C405 100.2 405.9 99.8999 406.8 99.0999C408.1 97.8999 408.8 98.0999 409.9 99.0999C410.1 99.2999 410.3 99.4999 410.5 99.6999C410.7 99.8999 410.9 99.9999 411.2 100.2C412.1 100.6 412.9 100.5 413.6 99.6999C414.5 98.6999 414.9 97.5999 414.7 96.3999C414.5 95.4999 414.6 94.5999 414.7 93.5999C414.8 92.7999 414.9 91.8999 414.9 90.9999ZM404.3 96.3999C404.2 96.4999 404 96.4999 403.9 96.4999H403.8C403.6 96.5999 403.3 96.5999 403.1 96.6999C402.4 96.7999 401.7 96.8999 401 96.9999C399.9 97.0999 398.6 97.1999 397.6 96.6999C397.2 96.4999 396.9 95.9999 397 95.4999C397.1 95.0999 397.5 94.7999 397.9 94.6999C399 94.3999 400.2 94.6999 401.2 94.8999C402 95.0999 402.9 95.2999 403.7 95.4999C403.7 95.4999 403.7 95.4999 403.8 95.4999C404.3 95.1999 404.9 96.0999 404.3 96.3999Z" fill="#1C1C1C"/>
<path d="M600.4 33.0998C598.9 33.2998 597.5 33.4998 596 33.7998C595.6 33.8998 595.2 33.8998 594.8 33.9998C594.2 33.9998 593.7 33.7999 593.4 33.1999C593.2 32.5999 593.3 31.9999 593.7 31.5999C594.1 31.1999 594.5 30.7999 595 30.5999C595.6 30.2999 596.3 29.9998 597 29.8998C598.6 29.5998 600.1 29.2999 601.7 29.5999C602 29.6999 602.4 29.6999 602.7 29.6999C605.6 29.7999 607.8 31.1998 609.5 33.2998C610.4 34.2998 611 35.5999 611.4 36.8999C611.9 38.5999 612.3 40.3998 612.4 42.1999C612.5 42.8998 612.4 43.5998 612.1 44.1999C611.7 45.0998 611 45.5998 610 45.6999C608.9 45.7999 608 45.3998 607.1 44.9998C606.6 44.7998 606.2 44.4999 605.7 44.3999C605.2 44.1999 604.6 44.2998 604.2 44.7998C602.8 46.3998 600.9 46.6998 599 46.7998C598.2 46.8998 597.3 46.7998 596.5 46.7998C594.8 46.6998 593.4 46.1999 592.2 45.1999C591.1 44.1999 591 43.0998 591.9 41.7998C592.3 41.2998 592.7 40.7998 593.2 40.2998C593.6 39.8998 596.6 38.7998 597.1 38.7998C598.5 38.9998 600 38.7999 601.5 38.8999C602.7 38.8999 603.8 39.2999 604.8 39.6999C605.4 39.8998 606.1 40.0998 606.7 40.2998C607.2 40.3998 607.6 40.0998 607.6 39.5998C607.6 39.1998 607.6 38.7998 607.4 38.4998C607.1 37.5998 606.7 36.6999 606.3 35.8999C605.8 34.8999 604.9 34.2998 603.8 33.9998C602.8 33.3998 601.6 33.0998 600.4 33.0998Z" fill="#1C1C1C"/>
<path d="M774.6 91.1002C772.7 91.2002 771.2 91.2002 770 90.6002C769.6 90.4002 769.3 90.2002 769 89.9002C768.5 89.4002 768.5 88.6002 769.2 88.0002C769.5 87.7002 769.8 87.5002 770.1 87.3002C771.6 86.4002 773.2 86.0002 774.7 85.5002C775.1 85.4002 775.5 85.5002 775.9 85.5002C776.5 85.5002 777.2 85.6002 777.8 85.5002C779.1 85.3002 779.9 84.4002 779.6 83.2002C779.4 82.1002 778.9 81.1002 778.2 80.3002C777.6 79.6002 777.3 78.9002 777 78.0002C776.7 76.9002 776.9 75.9002 777.7 74.9002C778.3 74.1002 779 73.4002 779.9 72.9002C779.9 72.9002 780 72.9002 780 72.8002C781.7 71.6002 783.5 71.2002 785.4 71.2002C786.6 71.2002 787.7 71.2002 788.9 71.2002C789.9 71.3002 790.7 71.6002 791.5 72.1002C791.8 72.3002 792.1 72.6002 792.3 72.8002C792.8 73.4002 792.9 74.0002 792.4 74.8002C792 75.6002 791.3 76.1002 790.4 76.1002C790 76.1002 789.5 76.1002 789.1 76.1002C787.2 75.8002 785.2 76.1002 783.2 76.7002C783 76.8002 782.8 76.8002 782.6 76.9002C782.2 77.1002 782 77.5002 782.2 77.8002C782.3 78.1002 782.4 78.3002 782.6 78.5002C783 79.1002 783.5 79.6002 784 80.2002C784.5 80.8002 784.7 81.4002 784.7 82.2002C784.7 83.2002 784.6 84.1002 784.6 85.1002C784.6 85.9002 784.3 86.7002 783.8 87.4002C783.2 88.3002 782.5 89.1002 781.6 89.7002C781.2 90.0002 780.7 90.2002 780.2 90.3002C778.2 90.8002 776.2 91.2002 774.6 91.1002Z" fill="#1C1C1C"/>
<path d="M625.4 34.4998C625.6 34.7998 625.7 34.9998 625.8 35.0998C626.3 35.3998 626.7 35.6998 627.2 35.9998C629.4 36.9998 630.4 40.5998 627.9 43.0998C627.5 43.4998 627.1 43.8998 626.6 44.1998C626.2 44.4998 625.8 44.6998 625.4 44.6998C623.8 44.8998 622.3 45.1998 620.7 44.7998C620.3 44.6998 619.8 44.6998 619.4 44.6998C617.8 44.6998 616.5 44.0998 615.2 43.3998C615 43.2998 614.9 43.1998 614.7 43.0998C614.2 42.6998 614.2 41.9998 614.6 41.5998C615.6 40.6998 616.8 39.8998 618.2 39.9998C618.6 39.9998 619 40.0998 619.3 40.1998C619.9 40.1998 620.5 40.2998 621 40.2998C621.8 40.2998 622.6 40.1998 623.3 40.0998C623.5 40.0998 623.8 39.9998 624 39.9998C624.3 39.8998 624.5 39.4998 624.2 39.2998C623.8 38.9998 623.4 38.6998 622.9 38.4998C621.7 37.9998 620.4 37.4998 619.2 37.0998C617.6 36.5998 616.4 35.5998 615.6 34.0998C615.1 33.0998 615.2 32.2998 616 31.3998C616.5 30.7998 617.1 30.3998 617.8 30.0998C619.5 29.1998 621.2 29.0998 623 28.7998C623.1 28.7998 623.3 28.6998 623.4 28.7998C624.8 28.9998 626.3 28.9998 627.6 29.6998C628.4 30.0998 629.3 30.3998 630.2 30.7998C630.9 31.0998 631.5 31.4998 631.9 32.0998C632.9 33.5998 632.1 34.9998 630.3 35.2998C629.6 35.3998 628.9 35.2998 628.3 34.9998C627.5 34.6998 626.6 34.4998 625.6 34.4998C625.9 34.2998 625.8 34.3998 625.4 34.4998Z" fill="#1C1C1C"/>
<path d="M331.5 88.3C331 88.3 330.8 88.6 330.7 88.9C330.1 90.2 329.4 91.4 329.2 92.8C329 93.9 328.8 94.9 328.6 96C328.5 96.9 328.1 97.7 327.7 98.5C327.1 99.7 325.8 100.1 324.7 99.4C323.9 98.9 323.5 98.1 323.6 97.1C323.7 96.4 323.7 95.6 323.6 94.9C323.5 94.5 323.6 94.1 323.7 93.7V93.6C323.8 92 324.4 90.7 325.3 89.3C325.8 88.6 326.1 87.8 326.5 87C327.4 85.4 328.7 84.1 329.9 82.7C330.2 82.3 330.6 82 330.9 81.6C331.9 80.6 333.2 80.3 334.4 80.8C335.3 81.2 335.9 82 336.3 82.9C337 84.8 337 86.8 336.8 88.9C336.7 89.7 336.7 90.5 336.7 91.2C336.7 91.7 336.5 92.3 336.4 92.8C336.2 93.9 336 94.9 335.8 96C335.6 97.1 335 98.1 334.3 98.9C333.7 99.5 332.9 99.6 332.3 99C331.4 98.1 330.8 96.9 330.9 95.5C331 94.4 331.2 93.3 331.4 92.1C331.6 90.8 331.7 89.6 331.5 88.3C331.7 88.5 331.6 88.4 331.5 88.3Z" fill="#1C1C1C"/>
<path d="M545.3 47.7998C543.6 47.8998 542 47.4998 540.5 46.9998C538.5 46.2998 537.2 44.7998 536.6 42.6998C536.4 41.7998 536.5 40.9998 536.8 40.0998C538.1 37.0998 540.5 35.1998 543.4 33.8998C543.9 33.6998 544.4 33.5998 544.8 33.4998C545.8 33.2998 546.9 33.1998 547.9 32.9998C548.5 32.8998 549.1 32.8998 549.6 33.0998C550.3 33.3998 551 33.5998 551.7 33.8998C552.1 34.0998 552.4 34.2998 552.7 34.5998C553.3 35.2998 553.2 36.0998 552.6 36.7998C552.5 36.8998 552.4 36.9998 552.3 37.0998C551.8 37.4998 551.7 37.9998 552 38.4998C552.7 39.6998 552.6 40.9998 552.6 42.2998C552.6 42.7998 552.5 43.3998 552.2 43.7998C550.6 45.9998 548.8 47.6998 545.9 47.5998C545.7 47.7998 545.5 47.7998 545.3 47.7998ZM547.7 39.5998C547.7 39.4998 547.7 39.3998 547.7 39.2998C548 37.9998 547.6 37.2998 545.9 37.8998C545.6 37.9998 545.3 38.0998 545.1 38.2998C544.7 38.4998 544.4 38.6998 544 38.7998C542.8 39.1998 542.1 40.0998 541.6 41.1998C541.2 41.8998 541.4 42.4998 542.1 42.8998C542.8 43.2998 543.5 43.3998 544.3 43.3998C545.9 43.3998 547.2 42.3998 547.6 40.7998C547.7 40.3998 547.7 39.9998 547.7 39.5998Z" fill="#1C1C1C"/>
<path d="M562.4 46.1999C561.2 45.8999 559.5 45.6999 558.1 44.9999C556.7 44.2999 555.5 43.1999 554.6 41.8999C554 40.9999 553.8 39.9999 554.1 38.8999C554.7 36.8999 555.7 34.9999 557.2 33.3999C557.4 33.0999 557.7 32.8999 558 32.6999C558.7 32.1999 559.5 31.5999 560.2 31.0999C561.3 30.2999 562.6 29.6999 563.9 29.6999C564.4 29.6999 565 29.5999 565.5 29.4999C568.1 29.0999 570.2 29.8999 571.7 31.7999C572 32.1999 572.3 32.7999 572.4 33.2999C572.7 34.3999 571.8 35.3999 570.7 35.2999C570.2 35.2999 569.8 35.0999 569.4 34.8999C568.4 34.4999 567.4 34.2999 566.3 34.4999C565.7 34.5999 565.1 34.7999 564.4 34.9999C564.3 34.9999 564.2 35.0999 564.1 35.0999C562.4 35.4999 561.5 36.6999 560.6 37.9999C559.6 39.4999 559.9 40.3999 561.6 40.6999C561.7 40.6999 561.9 40.7999 562 40.7999C563.4 40.6999 564.7 41.1999 566.1 41.3999C566.9 41.4999 567.6 41.9999 568.1 42.5999C568.4 42.9999 568.5 43.5999 568.3 44.0999C568 44.9999 566.8 45.9999 565.8 46.0999C564.8 46.1999 563.8 46.1999 562.4 46.1999Z" fill="#1C1C1C"/>
<path d="M439 81.2002C439.5 81.2002 440 81.2002 440.5 81.2002C442.2 81.2002 443.5 82.0002 444.6 83.1002C444.8 83.3002 445 83.5002 445.1 83.8002C445.6 84.8002 445.1 85.8002 444 86.1002C443.4 86.3002 442.7 86.3002 442.1 86.2002C440.7 85.9002 439.3 86.1002 437.9 86.4002C436.8 86.6002 435.8 87.0002 434.9 87.8002C433.9 88.6002 432.8 89.3002 431.8 90.0002C431.5 90.2002 431.2 90.4002 431 90.7002C430.6 91.1002 430.8 91.8002 431.3 91.9002C432 92.0002 432.6 92.1002 433.3 92.1002C434.3 92.0002 435.3 92.0002 436.3 92.3002C436.7 92.4002 437.3 92.4002 437.7 92.5002C438.4 92.6002 439 92.8002 439.5 93.2002C440.1 93.7002 440.2 94.4002 439.7 95.0002C439 95.9002 438.1 96.6002 437 96.8002C436.1 96.9002 435.1 97.1002 434.2 97.2002C432.5 97.4002 430.9 97.1002 429.3 96.6002C428.9 96.5002 428.5 96.3002 428.2 96.0002C427.7 95.7002 427.2 95.3002 426.7 94.9002C425.1 93.7002 424.6 91.9002 425.5 89.9002C425.9 89.0002 426.3 88.2002 426.9 87.4002C427.3 87.0002 427.7 86.6002 428.1 86.2002C428.4 85.9002 428.8 85.7002 429.2 85.3002C430 84.6002 430.8 84.1002 431.8 83.7002C432.7 83.3002 433.6 82.8002 434.5 82.3002C435.5 81.7002 436.5 81.3002 437.6 81.3002C438.1 81.3002 438.6 81.3002 439 81.2002Z" fill="#1C1C1C"/>
<path d="M582.6 44.4002C580.7 44.5002 579.2 44.3002 577.6 43.9002C574.3 42.9002 572.7 40.0002 572.7 37.1002C572.7 35.8002 573.1 34.7002 574.1 33.7002C574.4 33.4002 574.7 33.1002 574.9 32.8002C576.5 31.0002 578.5 30.1002 580.9 30.1002C581.6 30.1002 582.3 30.0002 583 30.0002C584.4 29.8002 585.7 30.1002 587 30.5002C588.2 30.9002 589.2 31.7002 590 32.6002C590.4 33.0002 590.6 33.6002 590.7 34.1002C590.9 35.3002 590 36.2002 588.8 35.9002C588.4 35.8002 588 35.6002 587.6 35.4002C586.3 34.7002 584.9 34.4002 583.4 34.4002C582.2 34.4002 581.1 34.8002 579.9 35.2002C578.9 35.6002 578.2 36.3002 577.8 37.3002C577.5 38.1002 577.7 38.6002 578.4 39.0002C579.5 39.5002 580.7 39.8002 582 39.8002C582.7 39.8002 583.5 39.8002 584.2 39.8002C584.9 39.8002 585.6 39.7002 586.2 39.6002C587 39.5002 587.9 39.5002 588.6 39.8002C589 40.0002 589.4 40.3002 589.6 40.8002C589.9 41.5002 589.6 42.3002 588.9 42.9002C587.3 44.1002 585.6 44.6002 583.7 44.5002C583.4 44.5002 582.9 44.4002 582.6 44.4002Z" fill="#1C1C1C"/>
<path d="M658.6 42.1001C658.7 41.8001 658.8 41.3001 658.9 40.9001C659.1 40.0001 659.3 39.1001 659.6 38.2001C660.1 36.8001 660.6 35.4001 661.2 34.0001C661.5 33.4001 662 33.0001 662.5 32.5001C663.3 31.7001 664.2 30.8001 665.1 30.1001C666.4 29.0001 667.9 28.3001 669.5 27.7001C670.9 27.1001 672.8 28.1001 673.4 29.5001C673.9 30.7001 674.3 31.9001 674.4 33.2001C674.4 34.6001 674.5 35.9001 674.5 37.3001C674.5 37.8001 674.6 38.3001 674.6 38.7001C674.6 39.4001 674.6 40.1001 674.6 40.7001C674.6 41.0001 674.5 41.4001 674.3 41.7001C673.7 42.8001 672.5 43.1001 671.6 42.2001C670.9 41.6001 670.5 40.8001 670.4 39.8001C670.3 39.0001 670.2 38.3001 670.2 37.5001C670.1 36.1001 670 34.6001 669.9 33.2001C669.9 33.0001 669.9 32.8001 669.8 32.6001C669.7 32.2001 669.3 32.0001 668.9 32.2001C667.9 32.7001 667 33.1001 666.2 33.9001C664.8 35.4001 663.9 37.1001 663.7 39.1001C663.6 40.3001 663.5 41.4001 663.3 42.6001C663.2 43.2001 663.1 43.8001 662.9 44.3001C662.3 45.7001 660.8 46.1001 659.6 45.3001C658.7 44.7001 658.4 43.8001 658.6 42.1001Z" fill="#1C1C1C"/>
<path d="M550.1 85.3002C549.7 85.6002 549.6 85.7002 549.4 85.8002C549.2 86.1002 549 86.4002 548.7 86.6002C547.1 88.0002 546.2 89.7002 545.4 91.6002C545.1 92.4002 544.6 93.0002 543.9 93.5002C543.1 94.1002 542.3 94.0002 541.7 93.4002C541.1 92.8002 540.8 92.0002 540.9 91.1002C541 90.1002 541.2 89.2002 541.9 88.3002C542.1 88.0002 542.4 87.6002 542.5 87.3002C543.3 85.3002 544.8 83.7002 546.4 82.1002C546.6 81.8002 546.9 81.6002 547.1 81.3002C548 79.9002 549.5 79.1002 550.9 78.3002C551.7 77.9002 552.4 77.9002 553.1 78.2002C554.3 78.8002 555.2 79.6002 555.4 81.0002C555.6 81.9002 555.7 82.8002 555.4 83.7002C555.3 84.1002 555.3 84.5002 555.2 84.9002C555 86.4002 554.8 87.8002 554.6 89.3002C554.5 89.7002 554.4 90.1002 554.2 90.4002C553.6 91.4002 552.7 91.7002 551.7 91.3002C550.4 90.7002 549.7 89.4002 549.8 88.0002C549.9 87.5002 549.9 86.9002 550 86.4002C550.2 86.2002 550.2 85.9002 550.1 85.3002Z" fill="#1C1C1C"/>
<path d="M315 68.8002C314.2 68.6002 313.1 69.1002 312.4 70.3002C311.5 71.7002 310.8 73.2002 310.7 74.9002C310.7 75.3002 310.6 75.7002 310.5 76.1002C310.1 77.0002 309.9 77.9002 309.8 78.8002C309.7 79.3002 309.5 79.8002 309.4 80.3002C308.9 82.2002 308.2 84.0002 307.9 85.9002C307.8 86.7002 307.5 87.5002 307.3 88.3002C306.8 89.9002 306.2 91.5002 305.6 93.1002C305.3 93.9002 305.1 94.7002 305.1 95.5002C305.1 95.6002 305.1 95.7002 305.1 95.7002C305 96.3002 304.9 96.8002 304.9 97.4002C304.9 98.1002 304.8 99.0002 305.1 99.7002C305.2 100 305.4 100.2 305.7 100.3C305.9 100.6 306.2 100.7 306.5 100.5C307.2 100.5 307.9 100.1 308.4 99.5002C308.9 98.8002 309 97.9002 309.4 97.2002C309.6 96.8002 309.9 96.5002 310.1 96.1002C310.3 95.7002 310.4 95.3002 310.5 94.8002C310.6 94.5002 310.7 94.1002 310.7 93.8002C311 92.9002 311.3 92.0002 311.4 91.0002C311.5 90.3002 311.8 89.6002 312 89.0002C312.7 86.8002 313.9 84.6002 314 82.3002C314 82.1002 314.1 81.8002 314.2 81.6002C315.1 78.4002 315.6 75.2002 316.4 71.9002C316.4 71.8002 316.5 71.6002 316.5 71.4002C316.5 70.3002 315.8 69.0002 315 68.8002Z" fill="#1C1C1C"/>
<path d="M295.3 88.9999C294.4 88.4999 293.5 88.1999 292.7 88.5999C292.5 88.6999 292.3 88.6999 292.1 88.6999C291.6 88.4999 291.1 88.5999 290.6 88.6999C290.3 88.7999 290 88.6999 289.7 88.6999C288.7 88.6999 287.6 88.4999 286.6 88.7999C286.2 88.8999 285.7 88.8999 285.3 88.7999C284.4 88.6999 283.5 88.5999 282.5 88.4999C282 88.3999 281.6 88.4999 281.2 88.6999C280.8 88.8999 280.4 89.0999 280.1 89.2999C279.8 89.4999 279.4 89.6999 279.2 90.0999C278.6 90.7999 278.7 91.3999 279.5 91.9999C280 92.2999 280.5 92.4999 281 92.8999C282.2 93.6999 283.5 93.8999 284.7 93.6999C285.1 93.5999 285.5 93.6999 285.8 93.6999C287.1 93.7999 288.4 94.2999 289.6 93.8999C289.7 93.8999 289.9 93.8999 290 93.8999C291.8 93.9999 293.5 93.5999 295.3 93.4999C295.3 93.4999 295.5 93.4999 295.6 93.3999C296.2 93.1999 296.7 92.1999 296.7 91.3999C296.5 90.2999 296 89.3999 295.3 88.9999Z" fill="#1C1C1C"/>
<path d="M810.4 55.2C809.6 58 809.1 60.8 808.2 63.5C808.1 63.7 808 63.9 808 64.1C807.9 66.1 806.7 67.9 806 69.8C805.8 70.4 805.5 71 805.4 71.5C805 73.4 804.2 75.3 802.9 76.9C802.4 77.5 801.9 78.3 801.4 78.9C800.5 79.9 799.8 79.9 799.5 78.8C799.3 78.3 799.3 77.7 799.2 77.1C799.2 76.5 799.2 75.8 799.2 75.2C799.2 74.5 799.4 73.9 799.7 73.2C800.3 71.8 800.8 70.5 801.4 69.1C801.7 68.4 801.9 67.7 802 67.1C802.3 65.5 802.9 63.9 803.5 62.3C803.6 61.9 803.8 61.4 803.9 61C804 60.2 804.2 59.4 804.6 58.7C804.8 58.4 804.8 58 804.8 57.7C804.8 56.3 805.6 55 806.5 53.8C807.2 52.8 808.3 52.3 809.1 52.5C809.9 52.7 810.6 53.8 810.5 54.8C810.4 55 810.4 55.2 810.4 55.2Z" fill="#1C1C1C"/>
<path d="M758.3 83.1998C757.8 86.1998 757.1 86.9998 754.8 89.0998C753.2 90.4998 751.4 91.1998 749.5 90.6998C747.8 90.1998 746.7 88.3998 747 86.3998C747.3 84.6998 746.6 84.5998 747.6 82.8998C747.7 82.7998 747.7 82.6998 747.7 82.5998C748.1 80.7998 749.5 79.3998 750.4 77.8998C750.9 77.0998 751.6 76.5998 752.4 76.0998C753.4 75.4998 754.4 75.7998 754.7 76.7998C754.8 77.1998 754.8 77.6998 754.7 78.1998C754.4 79.1998 754.1 80.0998 753.5 80.9998C752.8 82.2998 752.1 83.6998 751.5 84.9998C751.5 85.0998 751.4 85.1998 751.4 85.2998C751.4 85.3998 751.4 85.5998 751.5 85.6998C751.6 85.7998 751.8 85.6998 751.9 85.6998C752.1 85.5998 752.3 85.4998 752.4 85.2998C752.8 84.7998 753.2 84.2998 753.6 83.7998C754.2 82.9998 754.7 82.1998 755.3 81.4998C755.9 80.6998 756.6 80.3998 757.3 80.4998C758 80.6998 758.4 81.2998 758.4 82.1998C758.4 82.6998 758.4 82.9998 758.3 83.1998Z" fill="#1C1C1C"/>
<path d="M651.2 32.5002C652.4 32.2002 653.5 32.7002 654.6 33.3002C655.1 33.7002 655.5 34.1002 655.4 34.8002C655.3 35.5002 654.8 36.1002 654.1 36.3002C653.6 36.5002 653.1 36.5002 652.7 36.7002C651.8 36.9002 650.9 37.2002 650 37.5002C649.2 37.7002 648.8 38.4002 648.6 39.1002C648.5 39.6002 648.7 40.1002 649.2 40.2002C650.2 40.6002 651.3 40.5002 652.4 40.0002C652.9 39.8002 653.2 39.3002 653.5 38.8002C653.7 38.4002 653.8 38.0002 654.1 37.6002C654.8 36.5002 655.8 36.3002 656.7 37.1002C657.5 37.9002 658 38.8002 657.6 40.1002C657.5 40.3002 657.5 40.6002 657.4 40.8002C657.3 42.3002 656.4 43.4002 655.2 44.2002C654 45.1002 652.7 45.3002 651.4 45.0002C650.3 44.8002 649.1 44.6002 648 44.3002C646.3 43.9002 645.3 42.6002 644.4 41.3002C644.1 40.9002 644.1 40.4002 644 39.9002C643.9 39.5002 644 39.1002 643.9 38.7002C643.6 37.3002 644.3 36.2002 645.2 35.2002C645.8 34.5002 646.5 33.9002 647.2 33.3002C648 32.6002 648.9 32.2002 649.9 32.2002C650.1 32.5002 650.6 32.5002 651.2 32.5002Z" fill="#1C1C1C"/>
<path d="M772.5 81.0002C772.4 81.7002 772.1 82.3002 771.5 82.9002C770.8 83.7002 770 83.9002 769.2 83.5002C768.5 83.2002 767.9 82.6002 767.7 81.9002C767.6 81.5002 767.4 81.1002 767.3 80.8002C767 80.3002 766.5 80.3002 766.2 80.9002C765.8 81.5002 765.5 82.2002 765.1 82.8002C764.8 83.3002 764.6 83.8002 764.4 84.3002C764 85.1002 763.6 85.9002 763.4 86.7002C763.2 87.4002 762.9 88.0002 762.6 88.7002C762.4 89.1002 762.2 89.4002 761.9 89.7002C760.8 90.8002 759.3 90.8002 758.6 89.7002C758.2 89.0002 758 88.2002 758.3 87.4002C758.8 85.8002 759.4 84.1002 760.3 82.6002C760.7 82.0002 761 81.4002 761.2 80.8002C761.5 79.9002 761.9 79.1002 762.5 78.4002C762.6 78.2002 762.8 78.1002 762.9 77.9002C763.6 76.8002 764.6 76.1002 765.7 75.4002C767.2 74.5002 768.5 74.7002 769.6 75.3002C770.9 76.1002 772 77.2002 772.4 78.8002C772.6 79.5002 772.6 80.2002 772.5 81.0002Z" fill="#1C1C1C"/>
<path d="M517.5 86.7002C517.7 86.0002 517.9 85.2002 518 84.5002C518.2 83.8002 518.3 83.1002 518.4 82.5002C518.5 81.8002 518.8 81.1002 519.3 80.5002C519.8 79.9002 520.3 79.3002 520.8 78.8002C521.7 77.9002 522.4 77.9002 523.3 78.5002C524.9 79.7002 525.2 81.4002 524.1 83.1002C523.7 83.7002 523.5 84.3002 523.4 85.0002C523.3 85.7002 523.1 86.3002 522.7 86.9002C522.5 87.2002 522.3 87.5002 522.2 87.8002C521.8 89.1002 520.8 90.2002 520.1 91.3002C520 91.5002 519.9 91.6002 519.7 91.8002C519.1 92.4002 518.5 92.4002 518.1 91.7002C517.9 91.3002 517.6 90.7002 517.6 90.2002C517.6 89.1002 517.6 87.9002 517.5 86.7002Z" fill="#1C1C1C"/>
<path d="M634.6 40.0001C634.9 38.2001 635.2 36.4001 635.5 34.6001C635.7 33.6001 636.3 33.0001 637.2 32.6001C637.8 32.4001 638.3 32.5001 638.7 32.8001C639.3 33.3001 639.7 33.9001 639.8 34.7001C639.8 35.1001 639.8 35.6001 639.7 36.0001C639.5 37.7001 639.2 39.4001 638.9 41.1001C638.7 42.3001 638.1 43.4001 637.3 44.3001C636.3 45.3001 635.3 45.2001 634.7 44.0001C634.4 43.3001 634.3 42.6001 634.4 41.8001C634.5 41.2001 634.6 40.6001 634.7 40.1001C634.7 40.0001 634.7 40.0001 634.6 40.0001Z" fill="#1C1C1C"/>
<path d="M647.3 85.5003C647.3 84.3003 647.4 83.4003 647.3 82.4003C647.3 82.2003 647.1 81.9003 646.9 81.9003C646.7 81.9003 646.4 82.0003 646.3 82.1003C645.5 83.5003 644.2 84.6003 643.3 85.9003C642.8 86.7003 642.3 87.5003 641.9 88.4003C641.4 89.6003 640.8 90.9003 640 92.0003C638.8 93.5003 637.3 93.4003 636.5 91.8003C636.3 91.3003 636.2 90.8003 636.3 90.3003C636.3 89.2003 636.7 88.2003 637.3 87.2003C638 86.0003 638.9 84.8003 639.4 83.5003C639.5 83.2003 639.8 82.9003 640 82.7003C640.6 82.0003 641.2 81.3003 641.8 80.6003C642.7 79.7003 643.6 78.7003 644.5 77.9003C646 76.6003 648.2 76.5003 649.7 77.5003C649.9 77.6003 650.2 77.8003 650.3 78.1003C651.1 79.2003 651.7 80.5003 651.9 82.0003C652.2 84.4003 651.7 86.6003 650.9 88.9003C650.6 89.7003 650.2 90.3003 649.5 90.9003C648.6 91.6003 647.9 91.5003 647.5 90.6003C647.3 90.0003 647 89.4003 646.9 88.7003C646.8 88.2003 646.8 87.6003 646.9 87.1003C647.1 86.4003 647.2 85.9003 647.3 85.5003Z" fill="#1C1C1C"/>
<path d="M637.5 80.6002C637.4 80.9002 637.2 81.2002 637.1 81.5002C636.4 83.0002 635.7 84.5002 635 86.0002C634.8 86.4002 634.7 86.9002 634.6 87.4002C634.3 88.6002 633.8 89.8002 633.1 90.8002C632.8 91.2002 632.5 91.5002 632.1 91.7002C631.4 92.2002 630.6 91.9002 630.3 91.2002C630.2 91.0002 630.1 90.8002 630.1 90.5002C629.9 88.8002 629.8 87.1002 630.3 85.4002C630.5 84.8002 630.6 84.2002 630.8 83.5002C630.9 83.1002 631.1 82.7002 631.2 82.2002C631.4 81.8002 631.6 81.4002 631.8 81.0002C632.4 79.3002 633.8 78.5002 635.3 77.9002C635.6 77.8002 636 77.8002 636.3 78.0002C637.2 78.7002 637.5 79.5002 637.5 80.6002Z" fill="#1C1C1C"/>
<path d="M635.6 71.2002C635.7 70.0002 636.1 69.0002 637 68.2002C637.6 67.7002 638.3 67.6002 638.9 68.0002C639.5 68.4002 639.8 68.9002 640 69.6002C640.3 70.8002 639.6 72.7002 638.5 73.4002C637.8 73.9002 637.1 73.9002 636.5 73.4002C635.8 72.9002 635.5 72.1002 635.6 71.2002Z" fill="#1C1C1C"/>
<path d="M522.5 70.7998C522.6 69.0998 524.1 67.7998 525.5 67.9998C526.8 68.1998 528 70.1998 526.9 71.5998C526.5 72.1998 526 72.6998 525.4 73.0998C524.6 73.6998 523.8 73.5998 523.2 72.7998C522.7 72.2998 522.5 71.4998 522.5 70.7998Z" fill="#1C1C1C"/>
<path d="M639.4 29.2999C638.4 29.2999 637.4 28.2999 637.4 27.2999C637.4 27.0999 637.4 26.8999 637.5 26.6999C638.1 25.2999 639.8 24.8999 640.7 25.9999C641.5 26.8999 641.5 27.8999 640.7 28.6999C640.4 29.0999 640 29.2999 639.4 29.2999Z" fill="#1C1C1C"/>
<path d="M799.2 88.7002C799 89.5002 798.1 90.3002 797.3 90.2002C796.6 90.2002 795.9 89.4002 796.1 88.7002C796.2 87.9002 797.1 87.2002 797.9 87.2002C798.7 87.2002 799.3 87.9002 799.2 88.7002Z" fill="#1C1C1C" stroke="#1C1C1C" stroke-width="3" stroke-miterlimit="10"/>
<path d="M178.7 66.4001C178.8 68.3001 178.8 70.2001 179.6 71.8001C180.2 73.0001 181 73.8001 182.3 74.2001C182.9 74.4001 183.3 74.1001 183.5 73.4001C183.6 73.0001 183.7 72.5001 183.7 72.1001C183.7 71.5001 183.6 70.8001 183.6 70.2001C183.6 69.6001 183.6 68.9001 183.7 68.3001C183.8 67.7001 183.8 67.0001 183.6 66.4001C183.4 65.9001 183.3 65.3001 183.2 64.8001C182.9 63.6001 182.3 63.1001 181.4 63.1001C180.4 63.2001 179.3 64.0001 179 65.0001C178.8 65.6001 178.8 66.0001 178.7 66.4001Z" fill="#1C1C1C"/>
<path d="M822.9 55.6999C822.5 57.5999 822.2 59.4999 821 61.0999C820.2 62.2999 819.2 63.0999 817.9 63.4999C817.3 63.6999 816.9 63.3999 816.8 62.6999C816.8 62.2999 816.8 61.7999 816.8 61.3999C816.9 60.7999 817.1 60.0999 817.2 59.4999C817.3 58.8999 817.4 58.1999 817.5 57.5999C817.5 56.9999 817.6 56.2999 817.9 55.6999C818.1 55.1999 818.4 54.5999 818.6 54.0999C819.2 52.8999 819.8 52.3999 820.7 52.3999C821.6 52.4999 822.6 53.2999 822.8 54.2999C822.9 54.8999 822.9 55.2999 822.9 55.6999Z" fill="#1C1C1C"/>
<path d="M201 105.7C201 104.7 201.1 103.7 201.3 102.7C201.5 101.7 201.2 100.7 201.6 99.7002C202 98.5002 202.2 97.3002 202.3 96.1002C202.4 95.3002 202.5 94.5002 202.7 93.6002C202.8 92.9002 202.6 92.7002 201.9 92.8002C201.1 92.9002 200.3 93.2002 199.5 93.4002C198.6 93.6002 197.6 93.9002 196.7 94.3002C196.1 94.6002 195.5 94.9002 194.9 95.1002C194.5 95.3002 194.2 95.7002 194.2 96.2002C194.1 97.4002 193.9 98.6002 193.8 99.8002C193.7 100.3 193.6 100.9 193.4 101.4C193.2 101.9 193.1 102.4 193.1 102.9C193.1 103.3 193 103.7 192.9 104.2C192.7 105.1 192.6 106 192.6 107C192.6 107.8 192.5 108.6 192.2 109.3C191.5 110.8 189.9 111.1 188.7 109.9C187.4 108.7 187.2 107.1 187.6 105.5C188.2 103.4 188.5 101.2 188.7 99.0002C188.7 98.7002 188.8 98.4002 188.9 98.1002C189.1 97.3002 188.8 96.8002 188 96.6002C187.9 96.6002 187.8 96.6002 187.7 96.5002C186.5 96.2002 186.1 95.5002 186.7 94.3002C187.2 93.3002 188 92.4002 189.2 92.1002C189.7 92.0002 190.1 91.6002 190.3 91.0002C190.4 90.5002 190.5 90.0002 190.8 89.6002C191 89.2002 191 88.7002 191 88.3002C191 87.6002 191.1 86.9002 191.3 86.2002C191.4 85.9002 191.5 85.7002 191.5 85.4002C191.6 84.2002 192.1 83.0002 192.3 81.9002C192.6 80.5002 193.1 79.1002 193.1 77.6002C193.1 76.8002 193.3 76.1002 193.5 75.3002C193.8 74.0002 193.8 72.7002 194.2 71.5002C194.8 69.8002 196.4 69.4002 197.7 70.7002C198.7 71.7002 198.9 72.8002 198.5 74.1002C198.3 74.6002 198.2 75.2002 197.9 75.7002C197.7 76.1002 197.7 76.5002 197.7 76.9002C197.7 77.6002 197.6 78.3002 197.4 79.0002C197.2 79.9002 197.1 80.9002 196.9 81.9002C196.7 82.8002 196.6 83.8002 196.6 84.8002C196.6 85.4002 196.3 86.0002 196.2 86.5002C196 87.3002 196 88.2002 195.9 89.0002C195.9 89.5002 196.2 89.8002 196.7 89.7002C197.5 89.5002 198.4 89.3002 199.2 89.1002C200.3 88.8002 201.3 88.3002 202.4 88.1002C203.6 87.9002 204.2 87.2002 204.4 85.8002C204.5 84.8002 204.7 83.8002 205 82.8002C205.2 82.1002 205.2 81.5002 205.2 80.8002C205.3 79.8002 205.7 78.9002 205.8 77.8002C205.9 76.7002 206.2 75.7002 206.4 74.6002C206.5 74.3002 206.6 74.0002 206.6 73.8002C206.5 72.4002 207 71.2002 207.2 69.8002C207.5 68.4002 207.7 66.9002 208 65.5002C208.1 65.2002 208.1 64.9002 208.2 64.7002C208.5 64.1002 208.6 63.5002 208.7 62.9002C208.8 62.1002 209.1 61.4002 209.5 60.8002C209.8 60.2002 210.5 60.0002 211.1 60.1002C211.6 60.2002 212.2 60.8002 212.3 61.4002C212.3 61.5002 212.3 61.7002 212.3 61.8002C212.2 63.1002 212.2 64.5002 212 65.8002C211.8 66.9002 211.6 68.0002 211.3 69.1002C211.2 69.7002 211.3 70.4002 211.2 71.1002C211 72.3002 210.8 73.5002 210.6 74.6002C210.4 75.8002 210.1 76.9002 210.1 78.1002C210.1 78.9002 209.8 79.7002 209.6 80.5002C209.6 80.6002 209.5 80.7002 209.5 80.8002C209.4 82.9002 208.6 84.9002 208.7 87.1002C208.7 87.8002 208.4 88.3002 208.2 88.9002C207.9 90.0002 208 91.1002 207.8 92.2002C207.7 92.6002 207.7 93.0002 207.5 93.3002C207.3 93.8002 207.2 94.3002 207.2 94.8002C207.2 95.4002 207 95.9002 206.9 96.5002C206.5 98.5002 206.3 100.6 206 102.6C205.8 104.1 205.4 105.5 205.1 106.9C205 107.4 205 108 204.8 108.5C204.6 109.3 204.1 109.8 203.4 110.3C202.5 110.9 201.4 110 201.3 109.2C201.3 108.9 201.2 108.7 201.2 108.4C201 107.3 200.9 106.5 201 105.7Z" fill="#1C1C1C"/>
<path d="M256.7 70.6002C257.4 70.6002 258 70.6002 258.6 70.4002C258.9 70.3002 259.2 70.3002 259.6 70.4002C259.8 70.4002 260.1 70.5002 260.4 70.5002C261.4 70.4002 262.4 70.5002 263.4 70.7002C264.9 70.9002 266.3 71.1002 267.7 71.6002C268.1 71.7002 268.4 71.9002 268.7 72.1002C269.7 72.9002 270.9 73.4002 271.9 74.3002C273 75.4002 273.4 76.7002 273.5 78.2002C273.6 79.6002 273 80.7002 272.1 81.7002C271.5 82.3002 271 83.1002 270.4 83.7002C269.9 84.2002 269.3 84.7002 268.8 85.2002C268.7 85.3002 268.6 85.3002 268.5 85.4002C268 85.6002 267.6 85.9002 267.3 86.2002C266.7 86.8002 266 87.4002 265.2 87.8002C264.1 88.4002 263.1 89.2002 262 89.9002C261.2 90.4002 260.3 90.7002 259.6 91.3002C258.8 91.9002 257.9 92.1002 257 92.6002C256.5 92.9002 256.1 93.2002 255.6 93.4002C254.9 93.8002 254.1 93.9002 253.3 93.9002C252.5 93.9002 252.2 94.2002 252.1 95.0002C251.9 96.3002 251.9 97.6002 251.6 98.8002C251.5 99.3002 251.5 99.8002 251.6 100.3C251.7 100.8 251.7 101.4 251.6 101.9C251.4 102.7 251.3 103.4 251.3 104.2C251.3 105.3 250.3 106.5 249.2 106.9C248.4 107.2 247.7 106.8 247.4 106C246.9 104.8 247.1 103.5 247.2 102.3C247.2 102 247.3 101.6 247.3 101.3C247.2 99.7002 247.6 98.1002 247.9 96.5002C248.1 95.8002 248.2 95.1002 248.2 94.4002C248.1 92.7002 248.4 91.0002 248.8 89.3002C249.2 87.8002 249.5 86.3002 249.3 84.7002C249.3 84.3002 249.4 84.0002 249.4 83.6002C249.7 82.4002 249.9 81.2002 249.7 80.0002C249.6 79.4002 249.9 78.9002 250 78.3002C250.1 77.9002 250.1 77.6002 250.1 77.2002C250.1 76.6002 249.7 76.2002 249.1 76.3002C248.8 76.3002 248.5 76.4002 248.2 76.4002C247.3 76.5002 246.6 75.7002 246.9 74.6002C247.3 73.2002 248.4 72.5002 249.8 72.2002C250.2 72.1002 250.6 71.9002 251 71.8002C251.9 71.5002 252.8 71.3002 253.8 71.2002C254.2 71.2002 254.7 71.1002 255.1 71.0002C255.6 70.5002 256.2 70.5002 256.7 70.6002ZM258.7 74.7002C258 74.8002 257.3 74.8002 256.7 74.8002C256.2 74.8002 255.7 74.8002 255.2 74.9002C254.3 75.1002 254 75.4002 253.9 76.3002C253.7 77.5002 253.6 78.7002 253.6 79.9002C253.6 80.3002 253.6 80.7002 253.5 81.1002C253.3 81.8002 253.3 82.5002 253.3 83.2002C253.3 84.4002 253.1 85.5002 253 86.7002C252.9 87.2002 252.8 87.6002 253 88.1002C253.2 88.5002 253.5 88.8002 253.9 88.6002C254.6 88.3002 255.3 88.1002 256 87.7002C256.4 87.5002 256.7 87.3002 257.1 87.2002C257.6 87.1002 258.1 86.8002 258.5 86.5002C259.4 85.6002 260.7 85.2002 261.7 84.5002C262.8 83.8002 263.9 83.1002 264.8 82.3002C265.6 81.6002 266.3 80.9002 267.1 80.2002C267.6 79.8002 268.1 79.3002 268.5 78.7002C268.8 78.2002 268.8 77.7002 268.4 77.2002C268.2 76.9002 267.9 76.7002 267.6 76.5002C266.1 75.5002 264.3 75.0002 262.5 74.7002C261.3 74.8002 260 74.9002 258.7 74.7002Z" fill="#1C1C1C"/>
<path d="M216.1 99.8C216.8 99.8 217.5 99.7 218.2 99.5C218.7 99.3 219.3 99.4 219.9 99.4C220.9 99.4 221.9 99.5 222.7 99C223.4 98.7 224.1 98.6 224.8 98.6C225 98.6 225.1 98.6 225.3 98.5C226.2 98.1 227 98.5 227.8 98.9C229.1 99.6 228.9 100.7 228.2 101.7C227.4 102.7 226.3 103.3 225 103.5C222.8 103.8 220.6 104.2 218.4 104.4C216.8 104.6 215.3 104.8 213.7 104.8C212.9 104.8 212.1 104.6 211.4 104C210.8 103.5 210.1 103.1 209.7 102.4C209.5 102.1 209.5 101.8 209.5 101.5C209.6 98.9 210 96.4 210.8 94C211.4 92.3 211.5 90.5 212 88.7C212.2 88.1 212.3 87.4 212.3 86.7C212.3 86.3 212.2 86 211.9 85.8C211.8 85.7 211.6 85.6 211.5 85.4C210.8 84.7 210.8 83.9 211.3 83.1C211.8 82.3 212.6 81.9 213.5 81.8C214.2 81.7 214.9 81.3 215.6 81.1C216.9 80.7 218.3 80.6 219.7 80.3C219.9 80.3 220.1 80.2 220.3 80.1C221.2 79.7 222 79.5 223 79.4C223.5 79.4 224 79.2 224.5 79C225.5 78.7 226.5 78.5 227.4 78.4C228.3 78.3 229.3 78.6 230.1 78.9C230.8 79.1 230.9 80.4 230.3 80.9C229.8 81.3 229.3 81.7 228.7 82.1C228 82.6 227.2 83 226.3 83C225 83.1 223.7 83.3 222.5 83.8C221.3 84.3 219.9 84.3 218.6 84.6C217.9 84.8 217.3 85.1 216.7 85.4C216.5 85.5 216.5 85.6 216.4 85.8C216.2 86.3 216.2 86.9 216.1 87.4C216.1 88.1 215.9 88.9 215.8 89.6C215.7 90.2 215.9 90.5 216.6 90.5C217.8 90.5 218.9 90.2 220.1 89.9C221.4 89.7 222.6 89.6 223.7 90.4C224.6 91 224.7 92 224 92.8C223.4 93.5 222.6 93.9 221.6 94.2C220.6 94.5 219.6 95 218.5 95C217.6 95 216.8 95.1 215.9 95.3C214.8 95.5 214.5 95.8 214.3 96.9C214.2 97.4 214.1 97.8 214 98.3C213.8 99.3 214.1 99.7 215.2 99.7C215.7 99.8 215.9 99.8 216.1 99.8Z" fill="#1C1C1C"/>
<path d="M234.7 106C233.5 106.2 232.5 105.5 231.5 104.7C231.1 104.3 230.9 103.7 230.9 103.2C230.7 101.6 230.6 100 231 98.4001C231.3 97.3001 231.3 96.0001 231.7 94.9001C231.9 94.5001 231.8 94.0001 231.9 93.5001C232.2 91.6001 232.5 89.6001 232.7 87.7001C232.8 87.0001 233 86.3001 233.2 85.6001C233.5 84.5001 233.6 83.4001 234 82.3001C234.4 81.0001 234.6 79.6001 234.9 78.3001C235.1 77.5001 236.1 77.0001 236.9 77.4001C237.3 77.6001 237.5 78.0001 237.5 78.5001C237.6 79.7001 237.8 81.0001 237.4 82.2001C237.3 82.6001 237.3 83.0001 237.3 83.3001C237.2 84.7001 237 86.0001 236.8 87.4001C236.7 88.2001 236.4 88.9001 236.1 89.7001C235.7 91.2001 235.5 92.8001 235.4 94.3001C235.3 95.1001 235.2 96.0001 235.1 96.8001C235 97.1001 235 97.5001 235 97.8001C235 98.5001 234.9 99.2001 234.6 99.9001C234.2 101 234.7 101.7 235.9 101.7C236.4 101.7 236.8 101.6 237.3 101.5C238.9 101.1 240.5 101 242.1 100.7C242.6 100.6 243.2 100.7 243.7 100.8C244.4 100.9 244.7 101.4 244.8 102C244.9 102.6 244.5 103.5 244 103.8C242.7 104.6 241.3 105.2 239.8 105.2C238.7 105.3 237.6 105.6 236.4 105.8C235.9 105.9 235.4 106 234.7 106Z" fill="#1C1C1C"/>
<path d="M57.1 47.3998C57.1 47.6998 57.1 47.9998 57.1 48.2998C57.1 48.8998 57.2 49.4998 57.4 50.0998C57.5 50.4998 57.6 50.9998 57.6 51.3998C57.6 51.8998 57.7 52.4998 57.8 52.9998C58 53.4998 58 54.0998 57.8 54.5998C57.6 55.0998 57.6 55.4998 57.6 55.9998C57.7 57.1998 57.1 57.8998 56.1 58.2998C55.8 58.3998 55.5 58.4998 55.2 58.5998C54.6 58.7998 54 58.5998 53.6 58.0998C53.4 57.8998 53.3 57.7998 53.2 57.5998C53 57.3998 52.9 57.1998 52.7 56.9998C52.4 56.4998 51.9 56.3998 51.3 56.4998C50.2 56.7998 49.1 56.9998 48 57.1998C46.2 57.5998 44.4 57.5998 42.7 56.7998C42.2 56.5998 41.8 56.3998 41.3 56.1998C40.1 55.6998 39.4 54.7998 39 53.5998C38.8 52.7998 38.6 51.8998 38.4 50.9998C38.3 50.4998 38.3 49.9998 38.6 49.5998C38.9 49.0998 39.2 48.5998 39.5 48.0998C39.8 47.5998 40.3 47.2998 40.9 46.9998C41.5 46.6998 42.1 46.4998 42.7 46.1998C43.7 45.7998 44.7 45.5998 45.8 45.6998C46.6 45.7998 47.4 45.8998 48.2 46.0998C48.9 46.2998 49.5 46.5998 50.1 47.0998C50.4 47.2998 50.7 47.4998 51 47.6998C51.5 47.8998 51.9 47.7998 52.1 47.1998C52.3 46.4998 52.5 45.7998 52.1 45.0998C51.9 44.7998 51.9 44.4998 51.8 44.1998C51.5 42.7998 51.2 41.3998 50.8 39.9998C50.7 39.4998 50.5 39.0998 50.3 38.5998C49.9 37.8998 49.3 37.4998 48.5 37.6998C47.1 37.9998 45.7 38.4998 44.4 39.2998C44.1 39.4998 43.9 39.7998 43.6 40.0998C43.3 40.3998 43 40.6998 42.5 40.7998C41.4 41.0998 40.4 40.3998 40.4 39.1998C40.4 38.3998 40.6 37.5998 41.1 36.8998C41.4 36.4998 41.8 36.0998 42.3 35.9998C42.9 35.7998 43.4 35.4998 43.8 35.0998C44.3 34.6998 44.8 34.2998 45.3 33.9998C45.5 33.8998 45.6 33.7998 45.8 33.6998C46.3 33.3998 48.8 32.8998 49.5 32.9998C49.7 32.9998 49.9 32.9998 50.1 33.0998C51.5 33.5998 52.8 34.2998 53.6 35.6998C54 36.2998 54.4 36.7998 54.8 37.2998C55.5 37.9998 55.8 38.8998 56 39.7998C56.7 42.4998 57.2 44.8998 57.1 47.3998ZM47.9 53.7998C48.3 53.7998 48.6 53.6998 48.9 53.6998C49.1 53.6998 49.2 53.5998 49.4 53.4998C49.8 53.2998 49.9 52.9998 49.7 52.5998C49.6 52.4998 49.5 52.2998 49.4 52.1998C47.9 50.8998 46.2 50.3998 44.3 50.4998C44.1 50.4998 43.8 50.5998 43.6 50.6998C43 50.9998 42.9 51.6998 43.3 52.1998C43.6 52.4998 43.9 52.6998 44.3 52.7998C45.1 52.9998 45.9 53.2998 46.7 53.4998C47.1 53.6998 47.6 53.6998 47.9 53.7998Z" fill="#1C1C1C"/>
<path d="M63.5 55.6998C63.4 54.7998 63.3 53.8998 63.2 52.9998C63.1 52.1998 63 51.3998 62.7 50.5998C62.6 50.2998 62.4 49.8998 62.4 49.4998C62.3 48.4998 62.2 47.3998 62.2 46.2998C62.2 44.9998 62.2 43.5998 62.2 42.1998C62.2 41.1998 62 40.1998 62 39.1998C61.9 37.0998 62 34.9998 61.9 32.7998C61.8 30.4998 62.2 28.0998 62 25.7998C62 25.4998 62 25.1998 62 24.8998C62.2 23.0998 62.4 21.1998 62.7 19.3998C62.8 18.7998 62.9 18.0998 63.1 17.4998C63.4 16.4998 64 15.9998 65 15.8998C66.1 15.7998 67 16.2998 67.3 17.1998C67.6 18.0998 67.8 19.0998 67.7 20.1998C67.5 21.6998 67.4 23.2998 67.4 24.7998C67.4 25.1998 67.3 25.6998 67.2 26.0998C66.9 27.0998 66.9 28.0998 67 29.0998C67.1 29.6998 67 30.2998 67 30.9998C67 31.7998 67 32.4998 67 33.2998C67 34.4998 67.1 35.6998 67.1 36.8998C67.1 38.4998 67.4 40.0998 67.1 41.6998C67.1 41.7998 67.1 41.9998 67.1 42.0998C67.4 43.2998 67.3 44.5998 67.2 45.7998C67.2 46.1998 67.3 46.5998 67.3 46.8998C67.3 47.5998 67.3 48.2998 67.2 49.0998C67.1 49.8998 67 50.5998 67.2 51.3998C67.4 52.2998 67.4 53.2998 67.1 54.2998C66.9 55.0998 66.8 55.7998 66.7 56.5998C66.6 56.9998 66.5 57.3998 66.4 57.6998C66.1 58.4998 65.4 58.6998 64.8 58.0998C64.3 57.5998 63.9 56.8998 63.7 56.1998C63.6 55.8998 63.6 55.4998 63.5 55.1998C63.6 55.6998 63.6 55.6998 63.5 55.6998Z" fill="#1C1C1C"/>
<path d="M75.5999 58.9998C73.4999 59.5998 71.7999 59.9998 70.1999 59.6998C69.6999 59.5998 69.2999 59.4998 68.8999 59.1998C68.0999 58.6998 67.9999 57.7998 68.5999 56.8998C68.7999 56.4998 69.0999 56.1998 69.3999 55.8998C70.7999 54.3998 72.4999 53.5998 74.1999 52.5998C74.5999 52.3998 75.0999 52.3998 75.4999 52.1998C76.1999 51.9998 76.9999 51.8998 77.6999 51.6998C79.1999 51.1998 79.7999 49.8998 79.0999 48.5998C78.4999 47.3998 77.6999 46.3998 76.6999 45.5998C75.8999 44.9998 75.2999 44.1998 74.6999 43.2998C73.9999 42.1998 74.0999 40.9998 74.5999 39.5998C75.0999 38.4998 75.6999 37.4998 76.5999 36.6998L76.6999 36.5998C78.2999 34.7998 80.2999 33.8998 82.3999 33.2998C83.6999 32.8998 85.1 32.5998 86.4 32.3998C87.5 32.1998 88.5999 32.3998 89.5999 32.6998C89.9999 32.7998 90.3999 33.0998 90.6999 33.2998C91.3999 33.7998 91.6999 34.5998 91.4 35.5998C91.1 36.5998 90.4999 37.3998 89.4999 37.6998C88.9999 37.7998 88.4999 37.9998 87.9999 37.9998C85.6999 38.0998 83.4999 39.0998 81.3999 40.2998C81.1999 40.3998 81 40.4998 80.8 40.6998C80.4 40.9998 80.2999 41.4998 80.4999 41.7998C80.6999 42.0998 80.8999 42.2998 81.0999 42.4998C81.7999 42.9998 82.3999 43.5998 83.0999 43.9998C83.7999 44.4998 84.2999 45.1998 84.4 46.0998C84.6 47.1998 84.7999 48.2998 85.0999 49.3998C85.2999 50.2998 85.2 51.2998 84.8 52.1998C84.4 53.3998 83.6999 54.4998 82.8999 55.3998C82.4999 55.7998 81.9999 56.1998 81.3999 56.4998C79.5999 57.6998 77.4999 58.7998 75.5999 58.9998Z" fill="#1C1C1C"/>
<path d="M104.8 46.8998C104.3 45.9998 103.4 45.1998 102.5 44.4998C100.5 43.0998 97.6 42.1998 95.4 43.3998C93.1 44.4998 91.1 46.6998 90.3 49.0998C90.3 49.1998 90.3 49.2998 90.2 49.3998C90.1 49.6998 89.9 49.9998 89.9 50.3998C89.9 50.7998 90 51.2998 89.9 51.6998C89.9 52.0998 89.8 52.4998 89.8 52.8998C90.3 54.8998 92.1 56.1998 93.8 56.9998C95 57.5998 96.2 57.8998 97.5 58.1998C97.9 58.1998 98.4 58.0998 98.8 57.9998C101.5 57.6998 103.4 56.2998 104.3 53.7998C104.6 52.9998 104.7 52.1998 104.7 51.3998C104.7 50.6998 105.1 50.0998 105.2 49.3998C105.4 48.5998 105.2 47.5998 104.8 46.8998ZM100.8 50.1998C100.8 50.6998 100.7 51.1998 100.4 51.5998C99.4 53.1998 97 53.3998 95.7 51.9998C95.3 51.5998 95 50.7998 95.1 50.2998C95.3 49.5998 96.4 48.7998 97 48.3998C97.8 47.7998 98.9 47.6998 99.9 48.0998C100 48.1998 100.1 48.2998 100.2 48.3998C100.6 48.6998 100.8 48.9998 100.9 49.3998C100.9 49.6998 100.9 49.9998 100.8 50.1998Z" fill="#1C1C1C"/>
<path d="M617.9 90.3001C617.6 90.2001 617.2 89.9001 616.9 89.9001C615 89.9001 613.2 90.0001 611.3 90.0001C610.8 90.0001 610.2 90.0001 609.7 89.8001C608.9 89.5001 608.8 88.9001 609.4 88.3001C609.7 88.0001 609.9 87.8001 610.2 87.5001C611.9 85.9001 613.3 84.1001 614.1 81.9001C614.6 80.6001 614.4 79.4001 613.5 78.7001C612.4 77.8001 611.1 77.4001 609.6 78.0001C609.3 78.1001 609 78.2001 608.7 78.3001C606.1 78.9001 604.4 80.5001 603.3 82.8001C603 83.3001 602.8 83.9001 602.5 84.4001C601.8 88.0001 602.3 89.4001 602.3 89.4001C603 90.1001 603.6 90.7001 604.3 91.3001C605.7 92.6001 607.4 93.6001 609.2 93.8001C612.2 94.2001 615.3 94.0001 617.7 91.8001L618 90.9001L617.9 90.3001ZM606.5 85.4001C606.5 85.3001 606.5 85.2001 606.6 85.1001C607.4 83.9001 607.9 82.4001 609.3 81.8001C609.4 81.7001 609.5 81.7001 609.7 81.6001C610.1 81.6001 610.4 81.6001 610.8 81.6001C610.7 81.9001 610.6 82.3001 610.4 82.6001C610.1 83.1001 609.9 83.6001 609.5 84.0001C608.8 84.7001 608 85.3001 607.1 85.8001C606.7 86.1001 606.5 85.9001 606.5 85.4001Z" fill="#1C1C1C"/>
<path d="M569.9 91C569.8 90.2 569.7 89.5 569.7 88.7C569.7 88 569.5 87.3 569.3 86.7C569.2 86.4 569.1 86.1 569 85.8C568.9 84.9 568.9 84 568.8 83.1C568.8 82 568.8 80.8 568.8 79.7C568.8 78.8 568.7 78 568.6 77.1C568.6 75.3 568.6 73.5 568.5 71.7C568.4 69.7 568.8 67.7 568.6 65.8C568.6 65.6 568.6 65.3 568.6 65.1C568.8 63.5 568.9 62 569.2 60.4C569.3 59.9 569.4 59.3 569.6 58.8C569.9 57.9 570.4 57.5 571.2 57.5C572.1 57.4 572.9 57.8 573.1 58.6C573.4 59.4 573.5 60.2 573.4 61.1C573.3 62.4 573.1 63.7 573.2 65C573.2 65.4 573.1 65.7 573 66.1C572.8 67 572.7 67.8 572.9 68.7C573 69.2 572.9 69.8 572.9 70.3C572.9 71 572.9 71.6 572.9 72.3C572.9 73.3 573 74.3 573 75.4C573 76.8 573.3 78.1 573 79.5C573 79.6 573 79.8 573 79.9C573.3 80.9 573.2 82 573.1 83.1C573.1 83.4 573.2 83.7 573.2 84.1C573.2 84.7 573.2 85.3 573.1 85.9C573 86.6 573 87.2 573.1 87.9C573.3 88.7 573.2 89.5 573 90.3C572.8 90.9 572.8 91.6 572.7 92.3C572.6 92.6 572.6 93 572.4 93.3C572.1 94 571.6 94.1 571.1 93.7C570.6 93.3 570.3 92.7 570.2 92.1C570 91.5 570 91.2 569.9 91Z" fill="#1C1C1C"/>
<path d="M591.9 86.4C592.3 86.1 592.4 86 592.6 85.9C592.8 85.6 593 85.3 593.3 85.1C594.9 83.7 595.8 82 596.6 80.1C596.9 79.3 597.4 78.7 598.1 78.2C598.9 77.6 599.7 77.7 600.3 78.3C600.9 78.9 601.2 79.7 601.1 80.6C601 81.6 600.8 82.5 600.1 83.4C599.9 83.7 599.6 84.1 599.5 84.4C598.7 86.4 597.2 88 595.6 89.6C595.4 89.9 595.1 90.1 594.9 90.4C594 91.8 592.5 92.6 591.1 93.4C590.3 93.8 589.6 93.8 588.9 93.5C587.7 92.9 586.8 92.1 586.6 90.7C586.4 89.8 586.3 88.9 586.6 88C586.7 87.6 586.7 87.2 586.8 86.8C587 85.3 587.2 83.9 587.4 82.4C587.5 82 587.6 81.6 587.8 81.3C588.4 80.3 589.3 80 590.3 80.4C591.6 81 592.3 82.3 592.2 83.7C592.1 84.2 592.1 84.8 592 85.3C591.8 85.6 591.9 85.9 591.9 86.4Z" fill="#1C1C1C"/>
<path d="M577.4 89.3C577.4 88.5 577.4 87.8 577.4 87.1C577.4 86.4 577.4 85.7 577.3 85C577.2 84.2 577.3 83.5 577.7 82.8C578.1 82.1 578.3 81.4 578.7 80.8C579.3 79.7 580 79.5 581 79.9C582.9 80.7 583.6 82.2 582.9 84.1C582.7 84.8 582.6 85.5 582.7 86.2C582.8 86.9 582.7 87.6 582.5 88.3C582.4 88.6 582.3 89 582.2 89.3C582.1 90.7 581.5 91.9 581.1 93.2C581 93.4 580.9 93.6 580.8 93.8C580.4 94.5 579.7 94.6 579.2 94.1C578.9 93.7 578.5 93.3 578.4 92.8C578 91.6 577.7 90.5 577.4 89.3Z" fill="#1C1C1C"/>
<path d="M578.3 72.6999C578 70.9999 579.1 69.3999 580.6 69.2999C581.9 69.1999 583.5 70.7999 582.8 72.4999C582.5 73.0999 582.2 73.7999 581.7 74.2999C581.1 75.0999 580.2 75.0999 579.5 74.5999C578.9 74.0999 578.5 73.3999 578.3 72.6999Z" fill="#1C1C1C"/>
</svg>
